<mxfile host="Electron" agent="Mozilla/5.0 (X11; Linux x86_64) AppleWebKit/537.36 (KHTML, like Gecko) draw.io/24.7.17 Chrome/128.0.6613.36 Electron/32.0.1 Safari/537.36" version="24.7.17" pages="3">
  <diagram name="第 1 页" id="1A1ezNnZrUYVsp3Wh6N2">
    <mxGraphModel dx="1671" dy="496" grid="1" gridSize="10" guides="1" tooltips="1" connect="1" arrows="1" fold="1" page="1" pageScale="1" pageWidth="827" pageHeight="1169" math="0" shadow="0">
      <root>
        <mxCell id="0" />
        <mxCell id="1" parent="0" />
        <mxCell id="zSxmJaPD-63I0w1NW2Ny-1" value="" style="ellipse;whiteSpace=wrap;html=1;" vertex="1" parent="1">
          <mxGeometry x="791.9" y="340" width="298.09" height="340" as="geometry" />
        </mxCell>
        <mxCell id="FpaZY4VgzPgLUHwjwygb-2" value="" style="rounded=1;whiteSpace=wrap;html=1;container=0;" parent="1" vertex="1">
          <mxGeometry x="1110" y="1340" width="579.84" height="510" as="geometry" />
        </mxCell>
        <mxCell id="FpaZY4VgzPgLUHwjwygb-21" value="" style="rounded=1;whiteSpace=wrap;html=1;container=0;" parent="1" vertex="1">
          <mxGeometry x="1130" y="1439" width="530" height="400" as="geometry" />
        </mxCell>
        <mxCell id="QoOzA8e9ZO23qS47UeTK-96" value="" style="rounded=1;whiteSpace=wrap;html=1;" parent="1" vertex="1">
          <mxGeometry x="-676.5" y="2200" width="1123" height="600" as="geometry" />
        </mxCell>
        <mxCell id="QoOzA8e9ZO23qS47UeTK-97" value="" style="ellipse;whiteSpace=wrap;html=1;" parent="1" vertex="1">
          <mxGeometry x="-649.5" y="2270" width="1063" height="490" as="geometry" />
        </mxCell>
        <mxCell id="QoOzA8e9ZO23qS47UeTK-152" style="edgeStyle=orthogonalEdgeStyle;rounded=0;orthogonalLoop=1;jettySize=auto;html=1;exitX=0;exitY=0.5;exitDx=0;exitDy=0;entryX=1;entryY=0.5;entryDx=0;entryDy=0;" parent="1" source="QoOzA8e9ZO23qS47UeTK-150" target="QoOzA8e9ZO23qS47UeTK-149" edge="1">
          <mxGeometry relative="1" as="geometry" />
        </mxCell>
        <mxCell id="QoOzA8e9ZO23qS47UeTK-153" value="send/recv" style="edgeLabel;html=1;align=center;verticalAlign=middle;resizable=0;points=[];" parent="QoOzA8e9ZO23qS47UeTK-152" vertex="1" connectable="0">
          <mxGeometry x="0.083" y="2" relative="1" as="geometry">
            <mxPoint as="offset" />
          </mxGeometry>
        </mxCell>
        <mxCell id="QoOzA8e9ZO23qS47UeTK-150" value="" style="rounded=0;whiteSpace=wrap;html=1;" parent="1" vertex="1">
          <mxGeometry x="-70" y="2430" width="354.84" height="190" as="geometry" />
        </mxCell>
        <mxCell id="QoOzA8e9ZO23qS47UeTK-155" style="edgeStyle=orthogonalEdgeStyle;rounded=0;orthogonalLoop=1;jettySize=auto;html=1;exitX=1;exitY=0.5;exitDx=0;exitDy=0;entryX=0;entryY=0.5;entryDx=0;entryDy=0;" parent="1" source="QoOzA8e9ZO23qS47UeTK-149" target="QoOzA8e9ZO23qS47UeTK-150" edge="1">
          <mxGeometry relative="1" as="geometry" />
        </mxCell>
        <mxCell id="QoOzA8e9ZO23qS47UeTK-149" value="" style="rounded=0;whiteSpace=wrap;html=1;" parent="1" vertex="1">
          <mxGeometry x="-510" y="2430" width="354.84" height="190" as="geometry" />
        </mxCell>
        <mxCell id="QoOzA8e9ZO23qS47UeTK-87" value="" style="ellipse;whiteSpace=wrap;html=1;" parent="1" vertex="1">
          <mxGeometry x="-690" y="1609" width="1150" height="290" as="geometry" />
        </mxCell>
        <mxCell id="zwm5u5BpOsFMlTVITZIZ-1" value="SpotServe" style="rounded=0;whiteSpace=wrap;html=1;" parent="1" vertex="1">
          <mxGeometry x="44" y="280" width="120" height="60" as="geometry" />
        </mxCell>
        <mxCell id="zwm5u5BpOsFMlTVITZIZ-2" value="Context Daemon" style="ellipse;whiteSpace=wrap;html=1;rounded=0;" parent="1" vertex="1">
          <mxGeometry x="-41" y="350" width="100" height="50" as="geometry" />
        </mxCell>
        <mxCell id="zwm5u5BpOsFMlTVITZIZ-4" value="LMCache" style="rounded=0;whiteSpace=wrap;html=1;" parent="1" vertex="1">
          <mxGeometry x="359" y="280" width="120" height="60" as="geometry" />
        </mxCell>
        <mxCell id="zwm5u5BpOsFMlTVITZIZ-5" value="" style="endArrow=classic;html=1;rounded=0;exitX=1;exitY=0.5;exitDx=0;exitDy=0;entryX=0;entryY=0.5;entryDx=0;entryDy=0;" parent="1" source="zwm5u5BpOsFMlTVITZIZ-1" target="zwm5u5BpOsFMlTVITZIZ-4" edge="1">
          <mxGeometry width="50" height="50" relative="1" as="geometry">
            <mxPoint x="489" y="370" as="sourcePoint" />
            <mxPoint x="539" y="320" as="targetPoint" />
          </mxGeometry>
        </mxCell>
        <mxCell id="zwm5u5BpOsFMlTVITZIZ-6" value="No Pagedattention" style="edgeLabel;html=1;align=center;verticalAlign=middle;resizable=0;points=[];" parent="zwm5u5BpOsFMlTVITZIZ-5" vertex="1" connectable="0">
          <mxGeometry x="0.0165" y="1" relative="1" as="geometry">
            <mxPoint as="offset" />
          </mxGeometry>
        </mxCell>
        <mxCell id="zwm5u5BpOsFMlTVITZIZ-7" value="Context Daemon" style="ellipse;whiteSpace=wrap;html=1;rounded=0;" parent="1" vertex="1">
          <mxGeometry x="149" y="350" width="100" height="50" as="geometry" />
        </mxCell>
        <mxCell id="zwm5u5BpOsFMlTVITZIZ-9" value="" style="endArrow=classic;startArrow=classic;html=1;rounded=0;exitX=1;exitY=0.5;exitDx=0;exitDy=0;entryX=0;entryY=0.5;entryDx=0;entryDy=0;" parent="1" source="zwm5u5BpOsFMlTVITZIZ-2" target="zwm5u5BpOsFMlTVITZIZ-7" edge="1">
          <mxGeometry width="50" height="50" relative="1" as="geometry">
            <mxPoint x="269" y="360" as="sourcePoint" />
            <mxPoint x="319" y="310" as="targetPoint" />
          </mxGeometry>
        </mxCell>
        <mxCell id="zwm5u5BpOsFMlTVITZIZ-10" value="Contact" style="edgeLabel;html=1;align=center;verticalAlign=middle;resizable=0;points=[];" parent="zwm5u5BpOsFMlTVITZIZ-9" vertex="1" connectable="0">
          <mxGeometry x="0.0343" y="1" relative="1" as="geometry">
            <mxPoint as="offset" />
          </mxGeometry>
        </mxCell>
        <mxCell id="zwm5u5BpOsFMlTVITZIZ-11" value="Redis server" style="ellipse;whiteSpace=wrap;html=1;rounded=0;" parent="1" vertex="1">
          <mxGeometry x="369" y="480" width="100" height="50" as="geometry" />
        </mxCell>
        <mxCell id="zwm5u5BpOsFMlTVITZIZ-15" value="vllm engine" style="rounded=1;whiteSpace=wrap;html=1;" parent="1" vertex="1">
          <mxGeometry x="279" y="360" width="90" height="40" as="geometry" />
        </mxCell>
        <mxCell id="zwm5u5BpOsFMlTVITZIZ-16" value="vllm engine" style="rounded=1;whiteSpace=wrap;html=1;" parent="1" vertex="1">
          <mxGeometry x="469" y="360" width="90" height="40" as="geometry" />
        </mxCell>
        <mxCell id="zwm5u5BpOsFMlTVITZIZ-24" value="vllm engine" style="rounded=1;whiteSpace=wrap;html=1;" parent="1" vertex="1">
          <mxGeometry x="895.95" y="360" width="90" height="40" as="geometry" />
        </mxCell>
        <mxCell id="zwm5u5BpOsFMlTVITZIZ-25" value="&lt;div&gt;kvcache&lt;/div&gt;gpu memory blocks" style="rounded=1;whiteSpace=wrap;html=1;" parent="1" vertex="1">
          <mxGeometry x="850" y="585" width="90" height="55" as="geometry" />
        </mxCell>
        <mxCell id="zwm5u5BpOsFMlTVITZIZ-30" value="" style="endArrow=classic;startArrow=classic;html=1;rounded=0;exitX=0.5;exitY=1;exitDx=0;exitDy=0;entryX=0.5;entryY=0;entryDx=0;entryDy=0;" parent="1" source="zwm5u5BpOsFMlTVITZIZ-15" target="zwm5u5BpOsFMlTVITZIZ-11" edge="1">
          <mxGeometry width="50" height="50" relative="1" as="geometry">
            <mxPoint x="639" y="460" as="sourcePoint" />
            <mxPoint x="689" y="410" as="targetPoint" />
          </mxGeometry>
        </mxCell>
        <mxCell id="zwm5u5BpOsFMlTVITZIZ-31" value="kv cache store / retrive" style="edgeLabel;html=1;align=center;verticalAlign=middle;resizable=0;points=[];" parent="zwm5u5BpOsFMlTVITZIZ-30" vertex="1" connectable="0">
          <mxGeometry x="-0.0288" y="-1" relative="1" as="geometry">
            <mxPoint x="-11" y="-10" as="offset" />
          </mxGeometry>
        </mxCell>
        <mxCell id="zwm5u5BpOsFMlTVITZIZ-32" value="" style="endArrow=classic;startArrow=classic;html=1;rounded=0;exitX=0.5;exitY=1;exitDx=0;exitDy=0;entryX=0.5;entryY=0;entryDx=0;entryDy=0;" parent="1" source="zwm5u5BpOsFMlTVITZIZ-16" target="zwm5u5BpOsFMlTVITZIZ-11" edge="1">
          <mxGeometry width="50" height="50" relative="1" as="geometry">
            <mxPoint x="334" y="410" as="sourcePoint" />
            <mxPoint x="419" y="460" as="targetPoint" />
          </mxGeometry>
        </mxCell>
        <mxCell id="zwm5u5BpOsFMlTVITZIZ-33" value="kv cache store / retrive" style="edgeLabel;html=1;align=center;verticalAlign=middle;resizable=0;points=[];" parent="zwm5u5BpOsFMlTVITZIZ-32" vertex="1" connectable="0">
          <mxGeometry x="-0.0288" y="-1" relative="1" as="geometry">
            <mxPoint x="-8" y="12" as="offset" />
          </mxGeometry>
        </mxCell>
        <mxCell id="VFmDMHkjii5PPxK0dxnN-2" value="dist.init_process_group" style="whiteSpace=wrap;html=1;rounded=0;" parent="1" vertex="1">
          <mxGeometry x="790" y="1025" width="146" height="70" as="geometry" />
        </mxCell>
        <mxCell id="VFmDMHkjii5PPxK0dxnN-4" value="dist.isend()" style="whiteSpace=wrap;html=1;rounded=0;" parent="1" vertex="1">
          <mxGeometry x="909" y="1040" width="141" height="40" as="geometry" />
        </mxCell>
        <mxCell id="VFmDMHkjii5PPxK0dxnN-6" value="dist.i&lt;span style=&quot;background-color: initial;&quot;&gt;recv()&lt;/span&gt;" style="whiteSpace=wrap;html=1;rounded=0;" parent="1" vertex="1">
          <mxGeometry x="1060.6100000000001" y="1120" width="150" height="70" as="geometry" />
        </mxCell>
        <mxCell id="VFmDMHkjii5PPxK0dxnN-7" value="send()" style="whiteSpace=wrap;html=1;rounded=0;" parent="1" vertex="1">
          <mxGeometry x="880.61" y="870" width="150" height="70" as="geometry" />
        </mxCell>
        <mxCell id="VFmDMHkjii5PPxK0dxnN-10" value="callback" style="whiteSpace=wrap;html=1;rounded=0;" parent="1" vertex="1">
          <mxGeometry x="799" y="1150" width="110" height="40" as="geometry" />
        </mxCell>
        <mxCell id="VFmDMHkjii5PPxK0dxnN-11" value="" style="endArrow=classic;html=1;rounded=0;entryX=1;entryY=0.5;entryDx=0;entryDy=0;exitX=0;exitY=0.5;exitDx=0;exitDy=0;" parent="1" source="VFmDMHkjii5PPxK0dxnN-7" target="VFmDMHkjii5PPxK0dxnN-4" edge="1">
          <mxGeometry width="50" height="50" relative="1" as="geometry">
            <mxPoint x="770.61" y="1080" as="sourcePoint" />
            <mxPoint x="820.61" y="1030" as="targetPoint" />
          </mxGeometry>
        </mxCell>
        <mxCell id="VFmDMHkjii5PPxK0dxnN-12" value="tensor" style="edgeLabel;html=1;align=center;verticalAlign=middle;resizable=0;points=[];" parent="VFmDMHkjii5PPxK0dxnN-11" vertex="1" connectable="0">
          <mxGeometry x="-0.0054" y="1" relative="1" as="geometry">
            <mxPoint as="offset" />
          </mxGeometry>
        </mxCell>
        <mxCell id="QoOzA8e9ZO23qS47UeTK-22" value="" style="group" parent="1" vertex="1" connectable="0">
          <mxGeometry x="-709.84" y="1040" width="579.84" height="350" as="geometry" />
        </mxCell>
        <mxCell id="QoOzA8e9ZO23qS47UeTK-14" value="" style="rounded=1;whiteSpace=wrap;html=1;" parent="QoOzA8e9ZO23qS47UeTK-22" vertex="1">
          <mxGeometry width="579.84" height="350" as="geometry" />
        </mxCell>
        <mxCell id="QoOzA8e9ZO23qS47UeTK-4" value="" style="ellipse;whiteSpace=wrap;html=1;" parent="QoOzA8e9ZO23qS47UeTK-22" vertex="1">
          <mxGeometry x="50" y="70" width="470" height="260" as="geometry" />
        </mxCell>
        <mxCell id="VFmDMHkjii5PPxK0dxnN-1" value="vllm engine" style="rounded=0;whiteSpace=wrap;html=1;" parent="QoOzA8e9ZO23qS47UeTK-22" vertex="1">
          <mxGeometry x="210.08000000000004" y="20" width="149.84" height="35" as="geometry" />
        </mxCell>
        <mxCell id="QoOzA8e9ZO23qS47UeTK-8" style="edgeStyle=orthogonalEdgeStyle;rounded=0;orthogonalLoop=1;jettySize=auto;html=1;exitX=0.5;exitY=1;exitDx=0;exitDy=0;entryX=0.5;entryY=0;entryDx=0;entryDy=0;" parent="QoOzA8e9ZO23qS47UeTK-22" source="VFmDMHkjii5PPxK0dxnN-5" target="QoOzA8e9ZO23qS47UeTK-2" edge="1">
          <mxGeometry relative="1" as="geometry" />
        </mxCell>
        <mxCell id="QoOzA8e9ZO23qS47UeTK-19" style="edgeStyle=orthogonalEdgeStyle;rounded=0;orthogonalLoop=1;jettySize=auto;html=1;exitX=1;exitY=0.5;exitDx=0;exitDy=0;entryX=0;entryY=0.5;entryDx=0;entryDy=0;" parent="QoOzA8e9ZO23qS47UeTK-22" source="VFmDMHkjii5PPxK0dxnN-5" target="QoOzA8e9ZO23qS47UeTK-1" edge="1">
          <mxGeometry relative="1" as="geometry" />
        </mxCell>
        <mxCell id="QoOzA8e9ZO23qS47UeTK-20" value="send" style="edgeLabel;html=1;align=center;verticalAlign=middle;resizable=0;points=[];" parent="QoOzA8e9ZO23qS47UeTK-19" vertex="1" connectable="0">
          <mxGeometry x="0.0171" relative="1" as="geometry">
            <mxPoint as="offset" />
          </mxGeometry>
        </mxCell>
        <mxCell id="VFmDMHkjii5PPxK0dxnN-5" value="stage1&lt;div&gt;shard1&lt;/div&gt;" style="whiteSpace=wrap;html=1;rounded=0;" parent="QoOzA8e9ZO23qS47UeTK-22" vertex="1">
          <mxGeometry x="149" y="140" width="111" height="50" as="geometry" />
        </mxCell>
        <mxCell id="QoOzA8e9ZO23qS47UeTK-12" style="edgeStyle=orthogonalEdgeStyle;rounded=0;orthogonalLoop=1;jettySize=auto;html=1;exitX=0.5;exitY=1;exitDx=0;exitDy=0;entryX=0.5;entryY=0;entryDx=0;entryDy=0;" parent="QoOzA8e9ZO23qS47UeTK-22" source="QoOzA8e9ZO23qS47UeTK-1" target="QoOzA8e9ZO23qS47UeTK-3" edge="1">
          <mxGeometry relative="1" as="geometry" />
        </mxCell>
        <mxCell id="QoOzA8e9ZO23qS47UeTK-1" value="stage2&lt;div&gt;shard1&lt;/div&gt;" style="whiteSpace=wrap;html=1;rounded=0;" parent="QoOzA8e9ZO23qS47UeTK-22" vertex="1">
          <mxGeometry x="308" y="140" width="111" height="50" as="geometry" />
        </mxCell>
        <mxCell id="QoOzA8e9ZO23qS47UeTK-9" style="edgeStyle=orthogonalEdgeStyle;rounded=0;orthogonalLoop=1;jettySize=auto;html=1;exitX=0.5;exitY=0;exitDx=0;exitDy=0;entryX=0.5;entryY=1;entryDx=0;entryDy=0;" parent="QoOzA8e9ZO23qS47UeTK-22" source="QoOzA8e9ZO23qS47UeTK-2" target="VFmDMHkjii5PPxK0dxnN-5" edge="1">
          <mxGeometry relative="1" as="geometry" />
        </mxCell>
        <mxCell id="QoOzA8e9ZO23qS47UeTK-16" value="send/recv" style="edgeLabel;html=1;align=center;verticalAlign=middle;resizable=0;points=[];" parent="QoOzA8e9ZO23qS47UeTK-9" vertex="1" connectable="0">
          <mxGeometry x="0.0041" relative="1" as="geometry">
            <mxPoint as="offset" />
          </mxGeometry>
        </mxCell>
        <mxCell id="QoOzA8e9ZO23qS47UeTK-10" style="edgeStyle=orthogonalEdgeStyle;rounded=0;orthogonalLoop=1;jettySize=auto;html=1;exitX=1;exitY=0.5;exitDx=0;exitDy=0;entryX=0;entryY=0.5;entryDx=0;entryDy=0;" parent="QoOzA8e9ZO23qS47UeTK-22" source="QoOzA8e9ZO23qS47UeTK-2" target="QoOzA8e9ZO23qS47UeTK-3" edge="1">
          <mxGeometry relative="1" as="geometry" />
        </mxCell>
        <mxCell id="QoOzA8e9ZO23qS47UeTK-21" value="send" style="edgeLabel;html=1;align=center;verticalAlign=middle;resizable=0;points=[];" parent="QoOzA8e9ZO23qS47UeTK-10" vertex="1" connectable="0">
          <mxGeometry x="0.0648" y="-1" relative="1" as="geometry">
            <mxPoint as="offset" />
          </mxGeometry>
        </mxCell>
        <mxCell id="QoOzA8e9ZO23qS47UeTK-2" value="stage1&lt;div&gt;shard2&lt;/div&gt;" style="whiteSpace=wrap;html=1;rounded=0;" parent="QoOzA8e9ZO23qS47UeTK-22" vertex="1">
          <mxGeometry x="149" y="240" width="111" height="50" as="geometry" />
        </mxCell>
        <mxCell id="QoOzA8e9ZO23qS47UeTK-13" style="edgeStyle=orthogonalEdgeStyle;rounded=0;orthogonalLoop=1;jettySize=auto;html=1;exitX=0.5;exitY=0;exitDx=0;exitDy=0;" parent="QoOzA8e9ZO23qS47UeTK-22" source="QoOzA8e9ZO23qS47UeTK-3" edge="1">
          <mxGeometry relative="1" as="geometry">
            <mxPoint x="363.64" y="190" as="targetPoint" />
          </mxGeometry>
        </mxCell>
        <mxCell id="QoOzA8e9ZO23qS47UeTK-17" value="send/recv" style="edgeLabel;html=1;align=center;verticalAlign=middle;resizable=0;points=[];" parent="QoOzA8e9ZO23qS47UeTK-13" vertex="1" connectable="0">
          <mxGeometry x="-0.0849" relative="1" as="geometry">
            <mxPoint as="offset" />
          </mxGeometry>
        </mxCell>
        <mxCell id="QoOzA8e9ZO23qS47UeTK-3" value="stage2&lt;div&gt;shard2&lt;/div&gt;" style="whiteSpace=wrap;html=1;rounded=0;" parent="QoOzA8e9ZO23qS47UeTK-22" vertex="1">
          <mxGeometry x="308" y="240" width="111" height="50" as="geometry" />
        </mxCell>
        <mxCell id="QoOzA8e9ZO23qS47UeTK-5" value="dist.init_process_group" style="shape=process;whiteSpace=wrap;html=1;backgroundOutline=1;" parent="QoOzA8e9ZO23qS47UeTK-22" vertex="1">
          <mxGeometry x="195" y="100" width="180" height="20" as="geometry" />
        </mxCell>
        <mxCell id="QoOzA8e9ZO23qS47UeTK-92" value="&lt;code&gt;CUDA_VISIBLE_DEVICES=0,1,2,3&lt;/code&gt;" style="text;whiteSpace=wrap;html=1;" parent="QoOzA8e9ZO23qS47UeTK-22" vertex="1">
          <mxGeometry x="184.92000000000002" y="80" width="210" height="30" as="geometry" />
        </mxCell>
        <mxCell id="QoOzA8e9ZO23qS47UeTK-23" value="" style="group" parent="1" vertex="1" connectable="0">
          <mxGeometry x="-80" y="1040" width="579.84" height="350" as="geometry" />
        </mxCell>
        <mxCell id="QoOzA8e9ZO23qS47UeTK-24" value="" style="rounded=1;whiteSpace=wrap;html=1;" parent="QoOzA8e9ZO23qS47UeTK-23" vertex="1">
          <mxGeometry width="579.84" height="350" as="geometry" />
        </mxCell>
        <mxCell id="QoOzA8e9ZO23qS47UeTK-25" value="" style="ellipse;whiteSpace=wrap;html=1;" parent="QoOzA8e9ZO23qS47UeTK-23" vertex="1">
          <mxGeometry x="50" y="70" width="470" height="260" as="geometry" />
        </mxCell>
        <mxCell id="QoOzA8e9ZO23qS47UeTK-26" value="vllm engine" style="rounded=0;whiteSpace=wrap;html=1;" parent="QoOzA8e9ZO23qS47UeTK-23" vertex="1">
          <mxGeometry x="210.08000000000004" y="20" width="149.84" height="35" as="geometry" />
        </mxCell>
        <mxCell id="QoOzA8e9ZO23qS47UeTK-27" style="edgeStyle=orthogonalEdgeStyle;rounded=0;orthogonalLoop=1;jettySize=auto;html=1;exitX=0.5;exitY=1;exitDx=0;exitDy=0;entryX=0.5;entryY=0;entryDx=0;entryDy=0;" parent="QoOzA8e9ZO23qS47UeTK-23" source="QoOzA8e9ZO23qS47UeTK-30" target="QoOzA8e9ZO23qS47UeTK-37" edge="1">
          <mxGeometry relative="1" as="geometry" />
        </mxCell>
        <mxCell id="QoOzA8e9ZO23qS47UeTK-28" style="edgeStyle=orthogonalEdgeStyle;rounded=0;orthogonalLoop=1;jettySize=auto;html=1;exitX=1;exitY=0.5;exitDx=0;exitDy=0;entryX=0;entryY=0.5;entryDx=0;entryDy=0;" parent="QoOzA8e9ZO23qS47UeTK-23" source="QoOzA8e9ZO23qS47UeTK-30" target="QoOzA8e9ZO23qS47UeTK-32" edge="1">
          <mxGeometry relative="1" as="geometry" />
        </mxCell>
        <mxCell id="QoOzA8e9ZO23qS47UeTK-29" value="send" style="edgeLabel;html=1;align=center;verticalAlign=middle;resizable=0;points=[];" parent="QoOzA8e9ZO23qS47UeTK-28" vertex="1" connectable="0">
          <mxGeometry x="0.0171" relative="1" as="geometry">
            <mxPoint as="offset" />
          </mxGeometry>
        </mxCell>
        <mxCell id="QoOzA8e9ZO23qS47UeTK-30" value="stage1&lt;div&gt;shard1&lt;/div&gt;" style="whiteSpace=wrap;html=1;rounded=0;" parent="QoOzA8e9ZO23qS47UeTK-23" vertex="1">
          <mxGeometry x="149" y="140" width="111" height="50" as="geometry" />
        </mxCell>
        <mxCell id="QoOzA8e9ZO23qS47UeTK-31" style="edgeStyle=orthogonalEdgeStyle;rounded=0;orthogonalLoop=1;jettySize=auto;html=1;exitX=0.5;exitY=1;exitDx=0;exitDy=0;entryX=0.5;entryY=0;entryDx=0;entryDy=0;" parent="QoOzA8e9ZO23qS47UeTK-23" source="QoOzA8e9ZO23qS47UeTK-32" target="QoOzA8e9ZO23qS47UeTK-40" edge="1">
          <mxGeometry relative="1" as="geometry" />
        </mxCell>
        <mxCell id="QoOzA8e9ZO23qS47UeTK-32" value="stage2&lt;div&gt;shard1&lt;/div&gt;" style="whiteSpace=wrap;html=1;rounded=0;" parent="QoOzA8e9ZO23qS47UeTK-23" vertex="1">
          <mxGeometry x="308" y="140" width="111" height="50" as="geometry" />
        </mxCell>
        <mxCell id="QoOzA8e9ZO23qS47UeTK-33" style="edgeStyle=orthogonalEdgeStyle;rounded=0;orthogonalLoop=1;jettySize=auto;html=1;exitX=0.5;exitY=0;exitDx=0;exitDy=0;entryX=0.5;entryY=1;entryDx=0;entryDy=0;" parent="QoOzA8e9ZO23qS47UeTK-23" source="QoOzA8e9ZO23qS47UeTK-37" target="QoOzA8e9ZO23qS47UeTK-30" edge="1">
          <mxGeometry relative="1" as="geometry" />
        </mxCell>
        <mxCell id="QoOzA8e9ZO23qS47UeTK-34" value="send/recv" style="edgeLabel;html=1;align=center;verticalAlign=middle;resizable=0;points=[];" parent="QoOzA8e9ZO23qS47UeTK-33" vertex="1" connectable="0">
          <mxGeometry x="0.0041" relative="1" as="geometry">
            <mxPoint as="offset" />
          </mxGeometry>
        </mxCell>
        <mxCell id="QoOzA8e9ZO23qS47UeTK-35" style="edgeStyle=orthogonalEdgeStyle;rounded=0;orthogonalLoop=1;jettySize=auto;html=1;exitX=1;exitY=0.5;exitDx=0;exitDy=0;entryX=0;entryY=0.5;entryDx=0;entryDy=0;" parent="QoOzA8e9ZO23qS47UeTK-23" source="QoOzA8e9ZO23qS47UeTK-37" target="QoOzA8e9ZO23qS47UeTK-40" edge="1">
          <mxGeometry relative="1" as="geometry" />
        </mxCell>
        <mxCell id="QoOzA8e9ZO23qS47UeTK-36" value="send" style="edgeLabel;html=1;align=center;verticalAlign=middle;resizable=0;points=[];" parent="QoOzA8e9ZO23qS47UeTK-35" vertex="1" connectable="0">
          <mxGeometry x="0.0648" y="-1" relative="1" as="geometry">
            <mxPoint as="offset" />
          </mxGeometry>
        </mxCell>
        <mxCell id="QoOzA8e9ZO23qS47UeTK-37" value="stage1&lt;div&gt;shard2&lt;/div&gt;" style="whiteSpace=wrap;html=1;rounded=0;" parent="QoOzA8e9ZO23qS47UeTK-23" vertex="1">
          <mxGeometry x="149" y="240" width="111" height="50" as="geometry" />
        </mxCell>
        <mxCell id="QoOzA8e9ZO23qS47UeTK-38" style="edgeStyle=orthogonalEdgeStyle;rounded=0;orthogonalLoop=1;jettySize=auto;html=1;exitX=0.5;exitY=0;exitDx=0;exitDy=0;" parent="QoOzA8e9ZO23qS47UeTK-23" source="QoOzA8e9ZO23qS47UeTK-40" edge="1">
          <mxGeometry relative="1" as="geometry">
            <mxPoint x="363.64" y="190" as="targetPoint" />
          </mxGeometry>
        </mxCell>
        <mxCell id="QoOzA8e9ZO23qS47UeTK-39" value="send/recv" style="edgeLabel;html=1;align=center;verticalAlign=middle;resizable=0;points=[];" parent="QoOzA8e9ZO23qS47UeTK-38" vertex="1" connectable="0">
          <mxGeometry x="-0.0849" relative="1" as="geometry">
            <mxPoint as="offset" />
          </mxGeometry>
        </mxCell>
        <mxCell id="QoOzA8e9ZO23qS47UeTK-40" value="stage2&lt;div&gt;shard2&lt;/div&gt;" style="whiteSpace=wrap;html=1;rounded=0;" parent="QoOzA8e9ZO23qS47UeTK-23" vertex="1">
          <mxGeometry x="308" y="240" width="111" height="50" as="geometry" />
        </mxCell>
        <mxCell id="QoOzA8e9ZO23qS47UeTK-41" value="dist.init_process_group" style="shape=process;whiteSpace=wrap;html=1;backgroundOutline=1;" parent="QoOzA8e9ZO23qS47UeTK-23" vertex="1">
          <mxGeometry x="195" y="100" width="180" height="20" as="geometry" />
        </mxCell>
        <mxCell id="QoOzA8e9ZO23qS47UeTK-93" value="&lt;code&gt;CUDA_VISIBLE_DEVICES=4,5,6,7&lt;/code&gt;" style="text;whiteSpace=wrap;html=1;" parent="QoOzA8e9ZO23qS47UeTK-23" vertex="1">
          <mxGeometry x="184.91999999999996" y="80" width="210" height="30" as="geometry" />
        </mxCell>
        <mxCell id="QoOzA8e9ZO23qS47UeTK-42" value="kv caches on GPU devices" style="rounded=0;whiteSpace=wrap;html=1;" parent="1" vertex="1">
          <mxGeometry x="-709.84" y="1490" width="579.84" height="70" as="geometry" />
        </mxCell>
        <mxCell id="QoOzA8e9ZO23qS47UeTK-43" value="kv caches on GPU devices" style="rounded=0;whiteSpace=wrap;html=1;" parent="1" vertex="1">
          <mxGeometry x="-80" y="1490" width="579.84" height="70" as="geometry" />
        </mxCell>
        <mxCell id="QoOzA8e9ZO23qS47UeTK-74" style="edgeStyle=orthogonalEdgeStyle;rounded=0;orthogonalLoop=1;jettySize=auto;html=1;exitX=0.5;exitY=0;exitDx=0;exitDy=0;entryX=0.5;entryY=1;entryDx=0;entryDy=0;" parent="1" source="QoOzA8e9ZO23qS47UeTK-45" target="QoOzA8e9ZO23qS47UeTK-42" edge="1">
          <mxGeometry relative="1" as="geometry" />
        </mxCell>
        <mxCell id="QoOzA8e9ZO23qS47UeTK-88" style="edgeStyle=orthogonalEdgeStyle;rounded=0;orthogonalLoop=1;jettySize=auto;html=1;exitX=1;exitY=0.5;exitDx=0;exitDy=0;entryX=0;entryY=0.5;entryDx=0;entryDy=0;" parent="1" source="QoOzA8e9ZO23qS47UeTK-45" target="QoOzA8e9ZO23qS47UeTK-84" edge="1">
          <mxGeometry relative="1" as="geometry" />
        </mxCell>
        <mxCell id="QoOzA8e9ZO23qS47UeTK-45" value="" style="rounded=1;whiteSpace=wrap;html=1;" parent="1" vertex="1">
          <mxGeometry x="-524.9200000000001" y="1684" width="210" height="140" as="geometry" />
        </mxCell>
        <mxCell id="QoOzA8e9ZO23qS47UeTK-66" value="cache engine" style="rounded=0;whiteSpace=wrap;html=1;" parent="1" vertex="1">
          <mxGeometry x="-494.84" y="1704" width="149.84" height="35" as="geometry" />
        </mxCell>
        <mxCell id="QoOzA8e9ZO23qS47UeTK-73" style="edgeStyle=orthogonalEdgeStyle;rounded=0;orthogonalLoop=1;jettySize=auto;html=1;exitX=0.5;exitY=1;exitDx=0;exitDy=0;entryX=0.5;entryY=0;entryDx=0;entryDy=0;" parent="1" source="QoOzA8e9ZO23qS47UeTK-14" target="QoOzA8e9ZO23qS47UeTK-77" edge="1">
          <mxGeometry relative="1" as="geometry" />
        </mxCell>
        <mxCell id="QoOzA8e9ZO23qS47UeTK-76" style="edgeStyle=orthogonalEdgeStyle;rounded=0;orthogonalLoop=1;jettySize=auto;html=1;exitX=0.5;exitY=1;exitDx=0;exitDy=0;entryX=0.5;entryY=0;entryDx=0;entryDy=0;" parent="1" source="QoOzA8e9ZO23qS47UeTK-24" target="QoOzA8e9ZO23qS47UeTK-78" edge="1">
          <mxGeometry relative="1" as="geometry" />
        </mxCell>
        <mxCell id="QoOzA8e9ZO23qS47UeTK-79" style="edgeStyle=orthogonalEdgeStyle;rounded=0;orthogonalLoop=1;jettySize=auto;html=1;exitX=0.5;exitY=1;exitDx=0;exitDy=0;entryX=0.5;entryY=0;entryDx=0;entryDy=0;" parent="1" source="QoOzA8e9ZO23qS47UeTK-77" target="QoOzA8e9ZO23qS47UeTK-42" edge="1">
          <mxGeometry relative="1" as="geometry" />
        </mxCell>
        <mxCell id="QoOzA8e9ZO23qS47UeTK-77" value="blocks" style="rounded=0;whiteSpace=wrap;html=1;" parent="1" vertex="1">
          <mxGeometry x="-459.92" y="1430" width="80" height="30" as="geometry" />
        </mxCell>
        <mxCell id="QoOzA8e9ZO23qS47UeTK-80" style="edgeStyle=orthogonalEdgeStyle;rounded=0;orthogonalLoop=1;jettySize=auto;html=1;exitX=0.5;exitY=1;exitDx=0;exitDy=0;entryX=0.5;entryY=0;entryDx=0;entryDy=0;" parent="1" source="QoOzA8e9ZO23qS47UeTK-78" target="QoOzA8e9ZO23qS47UeTK-43" edge="1">
          <mxGeometry relative="1" as="geometry" />
        </mxCell>
        <mxCell id="QoOzA8e9ZO23qS47UeTK-78" value="blocks" style="rounded=0;whiteSpace=wrap;html=1;" parent="1" vertex="1">
          <mxGeometry x="169.00000000000003" y="1430" width="80" height="30" as="geometry" />
        </mxCell>
        <mxCell id="QoOzA8e9ZO23qS47UeTK-86" style="edgeStyle=orthogonalEdgeStyle;rounded=0;orthogonalLoop=1;jettySize=auto;html=1;exitX=0.5;exitY=0;exitDx=0;exitDy=0;entryX=0.5;entryY=1;entryDx=0;entryDy=0;" parent="1" source="QoOzA8e9ZO23qS47UeTK-84" target="QoOzA8e9ZO23qS47UeTK-43" edge="1">
          <mxGeometry relative="1" as="geometry" />
        </mxCell>
        <mxCell id="QoOzA8e9ZO23qS47UeTK-89" style="edgeStyle=orthogonalEdgeStyle;rounded=0;orthogonalLoop=1;jettySize=auto;html=1;exitX=0;exitY=0.5;exitDx=0;exitDy=0;entryX=1;entryY=0.5;entryDx=0;entryDy=0;" parent="1" source="QoOzA8e9ZO23qS47UeTK-84" target="QoOzA8e9ZO23qS47UeTK-45" edge="1">
          <mxGeometry relative="1" as="geometry" />
        </mxCell>
        <mxCell id="QoOzA8e9ZO23qS47UeTK-90" value="send/recv" style="edgeLabel;html=1;align=center;verticalAlign=middle;resizable=0;points=[];" parent="QoOzA8e9ZO23qS47UeTK-89" vertex="1" connectable="0">
          <mxGeometry y="1" relative="1" as="geometry">
            <mxPoint as="offset" />
          </mxGeometry>
        </mxCell>
        <mxCell id="QoOzA8e9ZO23qS47UeTK-84" value="" style="rounded=1;whiteSpace=wrap;html=1;" parent="1" vertex="1">
          <mxGeometry x="103.99999999999994" y="1684" width="210" height="140" as="geometry" />
        </mxCell>
        <mxCell id="QoOzA8e9ZO23qS47UeTK-85" value="cache engine" style="rounded=0;whiteSpace=wrap;html=1;" parent="1" vertex="1">
          <mxGeometry x="135.00000000000003" y="1704" width="149.84" height="35" as="geometry" />
        </mxCell>
        <mxCell id="QoOzA8e9ZO23qS47UeTK-91" value="communicator" style="shape=process;whiteSpace=wrap;html=1;backgroundOutline=1;" parent="1" vertex="1">
          <mxGeometry x="-190" y="1654" width="190" height="20" as="geometry" />
        </mxCell>
        <mxCell id="QoOzA8e9ZO23qS47UeTK-94" value="&lt;code&gt;CUDA_VISIBLE_DEVICES=0-7&lt;/code&gt;" style="text;whiteSpace=wrap;html=1;" parent="1" vertex="1">
          <mxGeometry x="-185" y="1624" width="180" height="30" as="geometry" />
        </mxCell>
        <mxCell id="QoOzA8e9ZO23qS47UeTK-98" value="vllm engine" style="rounded=0;whiteSpace=wrap;html=1;" parent="1" vertex="1">
          <mxGeometry x="-192.92000000000002" y="2220" width="149.84" height="35" as="geometry" />
        </mxCell>
        <mxCell id="QoOzA8e9ZO23qS47UeTK-99" style="edgeStyle=orthogonalEdgeStyle;rounded=0;orthogonalLoop=1;jettySize=auto;html=1;exitX=0.5;exitY=1;exitDx=0;exitDy=0;entryX=0.5;entryY=0;entryDx=0;entryDy=0;" parent="1" source="QoOzA8e9ZO23qS47UeTK-102" target="QoOzA8e9ZO23qS47UeTK-109" edge="1">
          <mxGeometry relative="1" as="geometry" />
        </mxCell>
        <mxCell id="QoOzA8e9ZO23qS47UeTK-100" style="edgeStyle=orthogonalEdgeStyle;rounded=0;orthogonalLoop=1;jettySize=auto;html=1;exitX=1;exitY=0.5;exitDx=0;exitDy=0;entryX=0;entryY=0.5;entryDx=0;entryDy=0;" parent="1" source="QoOzA8e9ZO23qS47UeTK-102" target="QoOzA8e9ZO23qS47UeTK-104" edge="1">
          <mxGeometry relative="1" as="geometry" />
        </mxCell>
        <mxCell id="QoOzA8e9ZO23qS47UeTK-101" value="send" style="edgeLabel;html=1;align=center;verticalAlign=middle;resizable=0;points=[];" parent="QoOzA8e9ZO23qS47UeTK-100" vertex="1" connectable="0">
          <mxGeometry x="0.0171" relative="1" as="geometry">
            <mxPoint as="offset" />
          </mxGeometry>
        </mxCell>
        <mxCell id="QoOzA8e9ZO23qS47UeTK-102" value="stage1&lt;div&gt;shard1&lt;/div&gt;" style="whiteSpace=wrap;html=1;rounded=0;" parent="1" vertex="1">
          <mxGeometry x="-43.080000000000155" y="2450" width="111" height="50" as="geometry" />
        </mxCell>
        <mxCell id="QoOzA8e9ZO23qS47UeTK-103" style="edgeStyle=orthogonalEdgeStyle;rounded=0;orthogonalLoop=1;jettySize=auto;html=1;exitX=0.5;exitY=1;exitDx=0;exitDy=0;entryX=0.5;entryY=0;entryDx=0;entryDy=0;" parent="1" source="QoOzA8e9ZO23qS47UeTK-104" target="QoOzA8e9ZO23qS47UeTK-112" edge="1">
          <mxGeometry relative="1" as="geometry" />
        </mxCell>
        <mxCell id="QoOzA8e9ZO23qS47UeTK-104" value="stage2&lt;div&gt;shard1&lt;/div&gt;" style="whiteSpace=wrap;html=1;rounded=0;" parent="1" vertex="1">
          <mxGeometry x="115.91999999999985" y="2450" width="111" height="50" as="geometry" />
        </mxCell>
        <mxCell id="QoOzA8e9ZO23qS47UeTK-105" style="edgeStyle=orthogonalEdgeStyle;rounded=0;orthogonalLoop=1;jettySize=auto;html=1;exitX=0.5;exitY=0;exitDx=0;exitDy=0;entryX=0.5;entryY=1;entryDx=0;entryDy=0;" parent="1" source="QoOzA8e9ZO23qS47UeTK-109" target="QoOzA8e9ZO23qS47UeTK-102" edge="1">
          <mxGeometry relative="1" as="geometry" />
        </mxCell>
        <mxCell id="QoOzA8e9ZO23qS47UeTK-106" value="send/recv" style="edgeLabel;html=1;align=center;verticalAlign=middle;resizable=0;points=[];" parent="QoOzA8e9ZO23qS47UeTK-105" vertex="1" connectable="0">
          <mxGeometry x="0.0041" relative="1" as="geometry">
            <mxPoint as="offset" />
          </mxGeometry>
        </mxCell>
        <mxCell id="QoOzA8e9ZO23qS47UeTK-107" style="edgeStyle=orthogonalEdgeStyle;rounded=0;orthogonalLoop=1;jettySize=auto;html=1;exitX=1;exitY=0.5;exitDx=0;exitDy=0;entryX=0;entryY=0.5;entryDx=0;entryDy=0;" parent="1" source="QoOzA8e9ZO23qS47UeTK-109" target="QoOzA8e9ZO23qS47UeTK-112" edge="1">
          <mxGeometry relative="1" as="geometry" />
        </mxCell>
        <mxCell id="QoOzA8e9ZO23qS47UeTK-108" value="send" style="edgeLabel;html=1;align=center;verticalAlign=middle;resizable=0;points=[];" parent="QoOzA8e9ZO23qS47UeTK-107" vertex="1" connectable="0">
          <mxGeometry x="0.0648" y="-1" relative="1" as="geometry">
            <mxPoint as="offset" />
          </mxGeometry>
        </mxCell>
        <mxCell id="QoOzA8e9ZO23qS47UeTK-109" value="stage1&lt;div&gt;shard2&lt;/div&gt;" style="whiteSpace=wrap;html=1;rounded=0;" parent="1" vertex="1">
          <mxGeometry x="-43.080000000000155" y="2550" width="111" height="50" as="geometry" />
        </mxCell>
        <mxCell id="QoOzA8e9ZO23qS47UeTK-110" style="edgeStyle=orthogonalEdgeStyle;rounded=0;orthogonalLoop=1;jettySize=auto;html=1;exitX=0.5;exitY=0;exitDx=0;exitDy=0;entryX=0.5;entryY=1;entryDx=0;entryDy=0;" parent="1" source="QoOzA8e9ZO23qS47UeTK-112" target="QoOzA8e9ZO23qS47UeTK-104" edge="1">
          <mxGeometry relative="1" as="geometry">
            <mxPoint x="706.76" y="2530" as="targetPoint" />
          </mxGeometry>
        </mxCell>
        <mxCell id="QoOzA8e9ZO23qS47UeTK-111" value="send/recv" style="edgeLabel;html=1;align=center;verticalAlign=middle;resizable=0;points=[];" parent="QoOzA8e9ZO23qS47UeTK-110" vertex="1" connectable="0">
          <mxGeometry x="-0.0849" relative="1" as="geometry">
            <mxPoint as="offset" />
          </mxGeometry>
        </mxCell>
        <mxCell id="QoOzA8e9ZO23qS47UeTK-112" value="stage2&lt;div&gt;shard2&lt;/div&gt;" style="whiteSpace=wrap;html=1;rounded=0;" parent="1" vertex="1">
          <mxGeometry x="115.91999999999985" y="2550" width="111" height="50" as="geometry" />
        </mxCell>
        <mxCell id="QoOzA8e9ZO23qS47UeTK-113" value="dist.init_process_group" style="shape=process;whiteSpace=wrap;html=1;backgroundOutline=1;" parent="1" vertex="1">
          <mxGeometry x="-205.00000000000006" y="2310" width="180" height="20" as="geometry" />
        </mxCell>
        <mxCell id="QoOzA8e9ZO23qS47UeTK-114" value="&lt;code&gt;CUDA_VISIBLE_DEVICES=0-7&lt;/code&gt;" style="text;whiteSpace=wrap;html=1;" parent="1" vertex="1">
          <mxGeometry x="-208" y="2280" width="180" height="30" as="geometry" />
        </mxCell>
        <mxCell id="QoOzA8e9ZO23qS47UeTK-135" style="edgeStyle=orthogonalEdgeStyle;rounded=0;orthogonalLoop=1;jettySize=auto;html=1;exitX=0.5;exitY=1;exitDx=0;exitDy=0;entryX=0.5;entryY=0;entryDx=0;entryDy=0;" parent="1" source="QoOzA8e9ZO23qS47UeTK-138" target="QoOzA8e9ZO23qS47UeTK-145" edge="1">
          <mxGeometry relative="1" as="geometry" />
        </mxCell>
        <mxCell id="QoOzA8e9ZO23qS47UeTK-136" style="edgeStyle=orthogonalEdgeStyle;rounded=0;orthogonalLoop=1;jettySize=auto;html=1;exitX=1;exitY=0.5;exitDx=0;exitDy=0;entryX=0;entryY=0.5;entryDx=0;entryDy=0;" parent="1" source="QoOzA8e9ZO23qS47UeTK-138" target="QoOzA8e9ZO23qS47UeTK-140" edge="1">
          <mxGeometry relative="1" as="geometry" />
        </mxCell>
        <mxCell id="QoOzA8e9ZO23qS47UeTK-137" value="send" style="edgeLabel;html=1;align=center;verticalAlign=middle;resizable=0;points=[];" parent="QoOzA8e9ZO23qS47UeTK-136" vertex="1" connectable="0">
          <mxGeometry x="0.0171" relative="1" as="geometry">
            <mxPoint as="offset" />
          </mxGeometry>
        </mxCell>
        <mxCell id="QoOzA8e9ZO23qS47UeTK-138" value="stage1&lt;div&gt;shard1&lt;/div&gt;" style="whiteSpace=wrap;html=1;rounded=0;" parent="1" vertex="1">
          <mxGeometry x="-452.5000000000001" y="2450" width="111" height="50" as="geometry" />
        </mxCell>
        <mxCell id="QoOzA8e9ZO23qS47UeTK-139" style="edgeStyle=orthogonalEdgeStyle;rounded=0;orthogonalLoop=1;jettySize=auto;html=1;exitX=0.5;exitY=1;exitDx=0;exitDy=0;entryX=0.5;entryY=0;entryDx=0;entryDy=0;" parent="1" source="QoOzA8e9ZO23qS47UeTK-140" target="QoOzA8e9ZO23qS47UeTK-148" edge="1">
          <mxGeometry relative="1" as="geometry" />
        </mxCell>
        <mxCell id="QoOzA8e9ZO23qS47UeTK-140" value="stage2&lt;div&gt;shard1&lt;/div&gt;" style="whiteSpace=wrap;html=1;rounded=0;" parent="1" vertex="1">
          <mxGeometry x="-293.5000000000001" y="2450" width="111" height="50" as="geometry" />
        </mxCell>
        <mxCell id="QoOzA8e9ZO23qS47UeTK-141" style="edgeStyle=orthogonalEdgeStyle;rounded=0;orthogonalLoop=1;jettySize=auto;html=1;exitX=0.5;exitY=0;exitDx=0;exitDy=0;entryX=0.5;entryY=1;entryDx=0;entryDy=0;" parent="1" source="QoOzA8e9ZO23qS47UeTK-145" target="QoOzA8e9ZO23qS47UeTK-138" edge="1">
          <mxGeometry relative="1" as="geometry" />
        </mxCell>
        <mxCell id="QoOzA8e9ZO23qS47UeTK-142" value="send/recv" style="edgeLabel;html=1;align=center;verticalAlign=middle;resizable=0;points=[];" parent="QoOzA8e9ZO23qS47UeTK-141" vertex="1" connectable="0">
          <mxGeometry x="0.0041" relative="1" as="geometry">
            <mxPoint as="offset" />
          </mxGeometry>
        </mxCell>
        <mxCell id="QoOzA8e9ZO23qS47UeTK-143" style="edgeStyle=orthogonalEdgeStyle;rounded=0;orthogonalLoop=1;jettySize=auto;html=1;exitX=1;exitY=0.5;exitDx=0;exitDy=0;entryX=0;entryY=0.5;entryDx=0;entryDy=0;" parent="1" source="QoOzA8e9ZO23qS47UeTK-145" target="QoOzA8e9ZO23qS47UeTK-148" edge="1">
          <mxGeometry relative="1" as="geometry" />
        </mxCell>
        <mxCell id="QoOzA8e9ZO23qS47UeTK-144" value="send" style="edgeLabel;html=1;align=center;verticalAlign=middle;resizable=0;points=[];" parent="QoOzA8e9ZO23qS47UeTK-143" vertex="1" connectable="0">
          <mxGeometry x="0.0648" y="-1" relative="1" as="geometry">
            <mxPoint as="offset" />
          </mxGeometry>
        </mxCell>
        <mxCell id="QoOzA8e9ZO23qS47UeTK-145" value="stage1&lt;div&gt;shard2&lt;/div&gt;" style="whiteSpace=wrap;html=1;rounded=0;" parent="1" vertex="1">
          <mxGeometry x="-452.5000000000001" y="2550" width="111" height="50" as="geometry" />
        </mxCell>
        <mxCell id="QoOzA8e9ZO23qS47UeTK-146" style="edgeStyle=orthogonalEdgeStyle;rounded=0;orthogonalLoop=1;jettySize=auto;html=1;exitX=0.5;exitY=0;exitDx=0;exitDy=0;entryX=0.5;entryY=1;entryDx=0;entryDy=0;" parent="1" source="QoOzA8e9ZO23qS47UeTK-148" target="QoOzA8e9ZO23qS47UeTK-140" edge="1">
          <mxGeometry relative="1" as="geometry">
            <mxPoint x="193.33999999999997" y="2525" as="targetPoint" />
          </mxGeometry>
        </mxCell>
        <mxCell id="QoOzA8e9ZO23qS47UeTK-147" value="send/recv" style="edgeLabel;html=1;align=center;verticalAlign=middle;resizable=0;points=[];" parent="QoOzA8e9ZO23qS47UeTK-146" vertex="1" connectable="0">
          <mxGeometry x="-0.0849" relative="1" as="geometry">
            <mxPoint as="offset" />
          </mxGeometry>
        </mxCell>
        <mxCell id="QoOzA8e9ZO23qS47UeTK-148" value="stage2&lt;div&gt;shard2&lt;/div&gt;" style="whiteSpace=wrap;html=1;rounded=0;" parent="1" vertex="1">
          <mxGeometry x="-293.5000000000001" y="2550" width="111" height="50" as="geometry" />
        </mxCell>
        <mxCell id="QoOzA8e9ZO23qS47UeTK-157" value="" style="ellipse;whiteSpace=wrap;html=1;" parent="1" vertex="1">
          <mxGeometry x="-540" y="2970" width="670" height="300" as="geometry" />
        </mxCell>
        <mxCell id="QoOzA8e9ZO23qS47UeTK-167" style="edgeStyle=orthogonalEdgeStyle;rounded=0;orthogonalLoop=1;jettySize=auto;html=1;exitX=0.5;exitY=1;exitDx=0;exitDy=0;entryX=0.5;entryY=1;entryDx=0;entryDy=0;" parent="1" source="QoOzA8e9ZO23qS47UeTK-158" target="QoOzA8e9ZO23qS47UeTK-159" edge="1">
          <mxGeometry relative="1" as="geometry" />
        </mxCell>
        <mxCell id="QoOzA8e9ZO23qS47UeTK-158" value="vllm" style="rounded=0;whiteSpace=wrap;html=1;" parent="1" vertex="1">
          <mxGeometry x="-420" y="3130" width="120" height="60" as="geometry" />
        </mxCell>
        <mxCell id="QoOzA8e9ZO23qS47UeTK-168" style="edgeStyle=orthogonalEdgeStyle;rounded=0;orthogonalLoop=1;jettySize=auto;html=1;exitX=0.5;exitY=1;exitDx=0;exitDy=0;" parent="1" source="QoOzA8e9ZO23qS47UeTK-159" edge="1">
          <mxGeometry relative="1" as="geometry">
            <mxPoint x="-360" y="3189.740740740741" as="targetPoint" />
            <Array as="points">
              <mxPoint x="-200" y="3210" />
              <mxPoint x="-360" y="3210" />
            </Array>
          </mxGeometry>
        </mxCell>
        <mxCell id="QoOzA8e9ZO23qS47UeTK-170" value="kvcaches" style="edgeLabel;html=1;align=center;verticalAlign=middle;resizable=0;points=[];" parent="QoOzA8e9ZO23qS47UeTK-168" vertex="1" connectable="0">
          <mxGeometry x="0.0216" relative="1" as="geometry">
            <mxPoint as="offset" />
          </mxGeometry>
        </mxCell>
        <mxCell id="QoOzA8e9ZO23qS47UeTK-169" style="edgeStyle=orthogonalEdgeStyle;rounded=0;orthogonalLoop=1;jettySize=auto;html=1;exitX=0.5;exitY=1;exitDx=0;exitDy=0;entryX=0.5;entryY=1;entryDx=0;entryDy=0;" parent="1" source="QoOzA8e9ZO23qS47UeTK-159" target="QoOzA8e9ZO23qS47UeTK-160" edge="1">
          <mxGeometry relative="1" as="geometry" />
        </mxCell>
        <mxCell id="QoOzA8e9ZO23qS47UeTK-171" value="kvcaches" style="edgeLabel;html=1;align=center;verticalAlign=middle;resizable=0;points=[];" parent="QoOzA8e9ZO23qS47UeTK-169" vertex="1" connectable="0">
          <mxGeometry x="-0.0081" y="1" relative="1" as="geometry">
            <mxPoint as="offset" />
          </mxGeometry>
        </mxCell>
        <mxCell id="QoOzA8e9ZO23qS47UeTK-159" value="vllm" style="rounded=0;whiteSpace=wrap;html=1;" parent="1" vertex="1">
          <mxGeometry x="-260" y="3130" width="120" height="60" as="geometry" />
        </mxCell>
        <mxCell id="QoOzA8e9ZO23qS47UeTK-160" value="vllm" style="rounded=0;whiteSpace=wrap;html=1;" parent="1" vertex="1">
          <mxGeometry x="-99.99999999999999" y="3130" width="120" height="60" as="geometry" />
        </mxCell>
        <mxCell id="QoOzA8e9ZO23qS47UeTK-161" value="requests" style="rounded=0;whiteSpace=wrap;html=1;" parent="1" vertex="1">
          <mxGeometry x="-260" y="3000" width="120" height="60" as="geometry" />
        </mxCell>
        <mxCell id="QoOzA8e9ZO23qS47UeTK-163" value="" style="endArrow=classic;html=1;rounded=0;exitX=0.5;exitY=1;exitDx=0;exitDy=0;entryX=0.5;entryY=0;entryDx=0;entryDy=0;" parent="1" source="QoOzA8e9ZO23qS47UeTK-161" target="QoOzA8e9ZO23qS47UeTK-158" edge="1">
          <mxGeometry width="50" height="50" relative="1" as="geometry">
            <mxPoint x="-140" y="3060" as="sourcePoint" />
            <mxPoint x="-90" y="3010" as="targetPoint" />
          </mxGeometry>
        </mxCell>
        <mxCell id="QoOzA8e9ZO23qS47UeTK-164" value="" style="endArrow=none;dashed=1;html=1;rounded=0;exitX=0.5;exitY=1;exitDx=0;exitDy=0;entryX=0.5;entryY=0;entryDx=0;entryDy=0;" parent="1" source="QoOzA8e9ZO23qS47UeTK-161" target="QoOzA8e9ZO23qS47UeTK-159" edge="1">
          <mxGeometry width="50" height="50" relative="1" as="geometry">
            <mxPoint x="-140" y="3060" as="sourcePoint" />
            <mxPoint x="-90" y="3010" as="targetPoint" />
            <Array as="points">
              <mxPoint x="-200" y="3090" />
            </Array>
          </mxGeometry>
        </mxCell>
        <mxCell id="QoOzA8e9ZO23qS47UeTK-165" value="" style="endArrow=none;dashed=1;html=1;rounded=0;exitX=0.5;exitY=1;exitDx=0;exitDy=0;entryX=0.5;entryY=0;entryDx=0;entryDy=0;" parent="1" source="QoOzA8e9ZO23qS47UeTK-161" target="QoOzA8e9ZO23qS47UeTK-160" edge="1">
          <mxGeometry width="50" height="50" relative="1" as="geometry">
            <mxPoint x="-90" y="3070" as="sourcePoint" />
            <mxPoint x="-90" y="3140" as="targetPoint" />
            <Array as="points" />
          </mxGeometry>
        </mxCell>
        <mxCell id="FpaZY4VgzPgLUHwjwygb-3" value="" style="ellipse;whiteSpace=wrap;html=1;container=0;" parent="1" vertex="1">
          <mxGeometry x="1160" y="1570" width="470" height="260" as="geometry" />
        </mxCell>
        <mxCell id="FpaZY4VgzPgLUHwjwygb-4" value="vllm engine" style="rounded=0;whiteSpace=wrap;html=1;container=0;" parent="1" vertex="1">
          <mxGeometry x="1320.08" y="1370" width="149.84" height="35" as="geometry" />
        </mxCell>
        <mxCell id="FpaZY4VgzPgLUHwjwygb-5" style="edgeStyle=orthogonalEdgeStyle;rounded=0;orthogonalLoop=1;jettySize=auto;html=1;exitX=0.5;exitY=1;exitDx=0;exitDy=0;entryX=0.5;entryY=0;entryDx=0;entryDy=0;" parent="1" source="FpaZY4VgzPgLUHwjwygb-8" target="FpaZY4VgzPgLUHwjwygb-15" edge="1">
          <mxGeometry relative="1" as="geometry" />
        </mxCell>
        <mxCell id="FpaZY4VgzPgLUHwjwygb-6" style="edgeStyle=orthogonalEdgeStyle;rounded=0;orthogonalLoop=1;jettySize=auto;html=1;exitX=1;exitY=0.5;exitDx=0;exitDy=0;entryX=0;entryY=0.5;entryDx=0;entryDy=0;" parent="1" source="FpaZY4VgzPgLUHwjwygb-8" target="FpaZY4VgzPgLUHwjwygb-10" edge="1">
          <mxGeometry relative="1" as="geometry" />
        </mxCell>
        <mxCell id="FpaZY4VgzPgLUHwjwygb-7" value="send" style="edgeLabel;html=1;align=center;verticalAlign=middle;resizable=0;points=[];container=0;" parent="FpaZY4VgzPgLUHwjwygb-6" vertex="1" connectable="0">
          <mxGeometry x="0.0171" relative="1" as="geometry">
            <mxPoint as="offset" />
          </mxGeometry>
        </mxCell>
        <mxCell id="FpaZY4VgzPgLUHwjwygb-8" value="stage1&lt;div&gt;shard1&lt;/div&gt;" style="whiteSpace=wrap;html=1;rounded=0;container=0;" parent="1" vertex="1">
          <mxGeometry x="1259" y="1640" width="111" height="50" as="geometry" />
        </mxCell>
        <mxCell id="FpaZY4VgzPgLUHwjwygb-9" style="edgeStyle=orthogonalEdgeStyle;rounded=0;orthogonalLoop=1;jettySize=auto;html=1;exitX=0.5;exitY=1;exitDx=0;exitDy=0;entryX=0.5;entryY=0;entryDx=0;entryDy=0;" parent="1" source="FpaZY4VgzPgLUHwjwygb-10" target="FpaZY4VgzPgLUHwjwygb-18" edge="1">
          <mxGeometry relative="1" as="geometry" />
        </mxCell>
        <mxCell id="FpaZY4VgzPgLUHwjwygb-10" value="stage2&lt;div&gt;shard1&lt;/div&gt;" style="whiteSpace=wrap;html=1;rounded=0;container=0;" parent="1" vertex="1">
          <mxGeometry x="1418" y="1640" width="111" height="50" as="geometry" />
        </mxCell>
        <mxCell id="FpaZY4VgzPgLUHwjwygb-11" style="edgeStyle=orthogonalEdgeStyle;rounded=0;orthogonalLoop=1;jettySize=auto;html=1;exitX=0.5;exitY=0;exitDx=0;exitDy=0;entryX=0.5;entryY=1;entryDx=0;entryDy=0;" parent="1" source="FpaZY4VgzPgLUHwjwygb-15" target="FpaZY4VgzPgLUHwjwygb-8" edge="1">
          <mxGeometry relative="1" as="geometry" />
        </mxCell>
        <mxCell id="FpaZY4VgzPgLUHwjwygb-12" value="send/recv" style="edgeLabel;html=1;align=center;verticalAlign=middle;resizable=0;points=[];container=0;" parent="FpaZY4VgzPgLUHwjwygb-11" vertex="1" connectable="0">
          <mxGeometry x="0.0041" relative="1" as="geometry">
            <mxPoint as="offset" />
          </mxGeometry>
        </mxCell>
        <mxCell id="FpaZY4VgzPgLUHwjwygb-13" style="edgeStyle=orthogonalEdgeStyle;rounded=0;orthogonalLoop=1;jettySize=auto;html=1;exitX=1;exitY=0.5;exitDx=0;exitDy=0;entryX=0;entryY=0.5;entryDx=0;entryDy=0;" parent="1" source="FpaZY4VgzPgLUHwjwygb-15" target="FpaZY4VgzPgLUHwjwygb-18" edge="1">
          <mxGeometry relative="1" as="geometry" />
        </mxCell>
        <mxCell id="FpaZY4VgzPgLUHwjwygb-14" value="send" style="edgeLabel;html=1;align=center;verticalAlign=middle;resizable=0;points=[];container=0;" parent="FpaZY4VgzPgLUHwjwygb-13" vertex="1" connectable="0">
          <mxGeometry x="0.0648" y="-1" relative="1" as="geometry">
            <mxPoint as="offset" />
          </mxGeometry>
        </mxCell>
        <mxCell id="FpaZY4VgzPgLUHwjwygb-15" value="stage1&lt;div&gt;shard2&lt;/div&gt;" style="whiteSpace=wrap;html=1;rounded=0;container=0;" parent="1" vertex="1">
          <mxGeometry x="1259" y="1740" width="111" height="50" as="geometry" />
        </mxCell>
        <mxCell id="FpaZY4VgzPgLUHwjwygb-16" style="edgeStyle=orthogonalEdgeStyle;rounded=0;orthogonalLoop=1;jettySize=auto;html=1;exitX=0.5;exitY=0;exitDx=0;exitDy=0;" parent="1" source="FpaZY4VgzPgLUHwjwygb-18" edge="1">
          <mxGeometry relative="1" as="geometry">
            <mxPoint x="1473.6399999999999" y="1690" as="targetPoint" />
          </mxGeometry>
        </mxCell>
        <mxCell id="FpaZY4VgzPgLUHwjwygb-17" value="send/recv" style="edgeLabel;html=1;align=center;verticalAlign=middle;resizable=0;points=[];container=0;" parent="FpaZY4VgzPgLUHwjwygb-16" vertex="1" connectable="0">
          <mxGeometry x="-0.0849" relative="1" as="geometry">
            <mxPoint as="offset" />
          </mxGeometry>
        </mxCell>
        <mxCell id="FpaZY4VgzPgLUHwjwygb-18" value="stage2&lt;div&gt;shard2&lt;/div&gt;" style="whiteSpace=wrap;html=1;rounded=0;container=0;" parent="1" vertex="1">
          <mxGeometry x="1418" y="1740" width="111" height="50" as="geometry" />
        </mxCell>
        <mxCell id="FpaZY4VgzPgLUHwjwygb-19" value="dist.init_process_group" style="shape=process;whiteSpace=wrap;html=1;backgroundOutline=1;container=0;" parent="1" vertex="1">
          <mxGeometry x="1305" y="1600" width="180" height="20" as="geometry" />
        </mxCell>
        <mxCell id="FpaZY4VgzPgLUHwjwygb-20" value="&lt;code&gt;CUDA_VISIBLE_DEVICES=0,1,2,3&lt;/code&gt;" style="text;whiteSpace=wrap;html=1;container=0;" parent="1" vertex="1">
          <mxGeometry x="1294.92" y="1580" width="210" height="30" as="geometry" />
        </mxCell>
        <mxCell id="FpaZY4VgzPgLUHwjwygb-22" value="gpu_executor" style="rounded=0;whiteSpace=wrap;html=1;container=0;" parent="1" vertex="1">
          <mxGeometry x="1320.08" y="1470" width="149.84" height="35" as="geometry" />
        </mxCell>
        <mxCell id="FpaZY4VgzPgLUHwjwygb-23" value="C++ NCCL" style="verticalLabelPosition=bottom;verticalAlign=top;html=1;shape=mxgraph.basic.layered_rect;dx=10;outlineConnect=0;whiteSpace=wrap;" parent="1" vertex="1">
          <mxGeometry x="1930" y="1460" width="100" height="60" as="geometry" />
        </mxCell>
        <mxCell id="FpaZY4VgzPgLUHwjwygb-24" value="Python NCCL" style="verticalLabelPosition=bottom;verticalAlign=top;html=1;shape=mxgraph.basic.layered_rect;dx=10;outlineConnect=0;whiteSpace=wrap;" parent="1" vertex="1">
          <mxGeometry x="1750" y="1460" width="100" height="60" as="geometry" />
        </mxCell>
        <mxCell id="FpaZY4VgzPgLUHwjwygb-25" value="" style="endArrow=classic;html=1;rounded=0;exitX=0;exitY=0;exitDx=0;exitDy=25;exitPerimeter=0;entryX=0.915;entryY=0.392;entryDx=0;entryDy=0;entryPerimeter=0;" parent="1" source="FpaZY4VgzPgLUHwjwygb-23" target="FpaZY4VgzPgLUHwjwygb-24" edge="1">
          <mxGeometry width="50" height="50" relative="1" as="geometry">
            <mxPoint x="1550" y="1570" as="sourcePoint" />
            <mxPoint x="1600" y="1520" as="targetPoint" />
          </mxGeometry>
        </mxCell>
        <mxCell id="FpaZY4VgzPgLUHwjwygb-26" value="" style="endArrow=classic;html=1;rounded=0;exitX=0;exitY=0;exitDx=0;exitDy=25;exitPerimeter=0;entryX=1;entryY=0.5;entryDx=0;entryDy=0;" parent="1" source="FpaZY4VgzPgLUHwjwygb-24" target="FpaZY4VgzPgLUHwjwygb-22" edge="1">
          <mxGeometry width="50" height="50" relative="1" as="geometry">
            <mxPoint x="1680" y="1610" as="sourcePoint" />
            <mxPoint x="1730" y="1560" as="targetPoint" />
          </mxGeometry>
        </mxCell>
        <mxCell id="FpaZY4VgzPgLUHwjwygb-28" value="rank0" style="rounded=0;whiteSpace=wrap;html=1;" parent="1" vertex="1">
          <mxGeometry x="1680" y="1920" width="120" height="60" as="geometry" />
        </mxCell>
        <mxCell id="FpaZY4VgzPgLUHwjwygb-42" style="edgeStyle=orthogonalEdgeStyle;rounded=0;orthogonalLoop=1;jettySize=auto;html=1;exitX=0.5;exitY=1;exitDx=0;exitDy=0;entryX=0.5;entryY=0;entryDx=0;entryDy=0;" parent="1" source="FpaZY4VgzPgLUHwjwygb-29" target="FpaZY4VgzPgLUHwjwygb-40" edge="1">
          <mxGeometry relative="1" as="geometry" />
        </mxCell>
        <mxCell id="FpaZY4VgzPgLUHwjwygb-29" value="rank1" style="rounded=0;whiteSpace=wrap;html=1;" parent="1" vertex="1">
          <mxGeometry x="1520" y="2090" width="120" height="60" as="geometry" />
        </mxCell>
        <mxCell id="FpaZY4VgzPgLUHwjwygb-43" style="edgeStyle=orthogonalEdgeStyle;rounded=0;orthogonalLoop=1;jettySize=auto;html=1;exitX=0.5;exitY=1;exitDx=0;exitDy=0;entryX=0.5;entryY=0;entryDx=0;entryDy=0;" parent="1" source="FpaZY4VgzPgLUHwjwygb-30" target="FpaZY4VgzPgLUHwjwygb-41" edge="1">
          <mxGeometry relative="1" as="geometry" />
        </mxCell>
        <mxCell id="FpaZY4VgzPgLUHwjwygb-30" value="rank2" style="rounded=0;whiteSpace=wrap;html=1;" parent="1" vertex="1">
          <mxGeometry x="1860" y="2090" width="120" height="60" as="geometry" />
        </mxCell>
        <mxCell id="FpaZY4VgzPgLUHwjwygb-44" style="edgeStyle=orthogonalEdgeStyle;rounded=0;orthogonalLoop=1;jettySize=auto;html=1;exitX=0.5;exitY=1;exitDx=0;exitDy=0;entryX=0.5;entryY=0;entryDx=0;entryDy=0;" parent="1" source="FpaZY4VgzPgLUHwjwygb-31" target="FpaZY4VgzPgLUHwjwygb-39" edge="1">
          <mxGeometry relative="1" as="geometry" />
        </mxCell>
        <mxCell id="FpaZY4VgzPgLUHwjwygb-31" value="uniqueId" style="ellipse;whiteSpace=wrap;html=1;" parent="1" vertex="1">
          <mxGeometry x="1695" y="2000" width="90" height="50" as="geometry" />
        </mxCell>
        <mxCell id="FpaZY4VgzPgLUHwjwygb-34" value="" style="endArrow=classic;html=1;rounded=0;exitX=0.5;exitY=1;exitDx=0;exitDy=0;entryX=0.5;entryY=0;entryDx=0;entryDy=0;" parent="1" source="FpaZY4VgzPgLUHwjwygb-28" target="FpaZY4VgzPgLUHwjwygb-31" edge="1">
          <mxGeometry width="50" height="50" relative="1" as="geometry">
            <mxPoint x="1720" y="2090" as="sourcePoint" />
            <mxPoint x="1770" y="2040" as="targetPoint" />
          </mxGeometry>
        </mxCell>
        <mxCell id="FpaZY4VgzPgLUHwjwygb-35" value="" style="endArrow=classic;html=1;rounded=0;exitX=0;exitY=1;exitDx=0;exitDy=0;entryX=0.5;entryY=0;entryDx=0;entryDy=0;" parent="1" source="FpaZY4VgzPgLUHwjwygb-31" target="FpaZY4VgzPgLUHwjwygb-29" edge="1">
          <mxGeometry width="50" height="50" relative="1" as="geometry">
            <mxPoint x="1750" y="1990" as="sourcePoint" />
            <mxPoint x="1750" y="2030" as="targetPoint" />
          </mxGeometry>
        </mxCell>
        <mxCell id="FpaZY4VgzPgLUHwjwygb-37" value="mpi" style="edgeLabel;html=1;align=center;verticalAlign=middle;resizable=0;points=[];" parent="FpaZY4VgzPgLUHwjwygb-35" vertex="1" connectable="0">
          <mxGeometry x="-0.0082" y="-1" relative="1" as="geometry">
            <mxPoint as="offset" />
          </mxGeometry>
        </mxCell>
        <mxCell id="FpaZY4VgzPgLUHwjwygb-36" value="" style="endArrow=classic;html=1;rounded=0;exitX=1;exitY=1;exitDx=0;exitDy=0;entryX=0.5;entryY=0;entryDx=0;entryDy=0;" parent="1" source="FpaZY4VgzPgLUHwjwygb-31" target="FpaZY4VgzPgLUHwjwygb-30" edge="1">
          <mxGeometry width="50" height="50" relative="1" as="geometry">
            <mxPoint x="1760" y="2000" as="sourcePoint" />
            <mxPoint x="1760" y="2040" as="targetPoint" />
          </mxGeometry>
        </mxCell>
        <mxCell id="FpaZY4VgzPgLUHwjwygb-38" value="mpi" style="edgeLabel;html=1;align=center;verticalAlign=middle;resizable=0;points=[];" parent="FpaZY4VgzPgLUHwjwygb-36" vertex="1" connectable="0">
          <mxGeometry x="-0.0038" relative="1" as="geometry">
            <mxPoint as="offset" />
          </mxGeometry>
        </mxCell>
        <mxCell id="FpaZY4VgzPgLUHwjwygb-39" value="&lt;pre style=&quot;box-sizing: border-box; font-family: SFMono-Regular, Menlo, Monaco, Consolas, &amp;quot;Liberation Mono&amp;quot;, &amp;quot;Courier New&amp;quot;, Courier, monospace; line-height: 1.4; margin-top: 0px; margin-bottom: 0px; padding: 12px; overflow: auto; color: rgb(64, 64, 64); text-align: start; font-size: 7px;&quot;&gt;&lt;span class=&quot;n&quot; style=&quot;box-sizing: border-box; font-size: 7px;&quot;&gt;ncclCommInitRank&lt;/span&gt;&lt;/pre&gt;" style="rounded=0;whiteSpace=wrap;html=1;fontSize=7;" parent="1" vertex="1">
          <mxGeometry x="1700" y="2070" width="80" height="30" as="geometry" />
        </mxCell>
        <mxCell id="FpaZY4VgzPgLUHwjwygb-40" value="&lt;pre style=&quot;box-sizing: border-box; font-family: SFMono-Regular, Menlo, Monaco, Consolas, &amp;quot;Liberation Mono&amp;quot;, &amp;quot;Courier New&amp;quot;, Courier, monospace; line-height: 1.4; margin-top: 0px; margin-bottom: 0px; padding: 12px; overflow: auto; color: rgb(64, 64, 64); text-align: start; font-size: 7px;&quot;&gt;&lt;span class=&quot;n&quot; style=&quot;box-sizing: border-box; font-size: 7px;&quot;&gt;ncclCommInitRank&lt;/span&gt;&lt;/pre&gt;" style="rounded=0;whiteSpace=wrap;html=1;fontSize=7;" parent="1" vertex="1">
          <mxGeometry x="1540" y="2170" width="80" height="30" as="geometry" />
        </mxCell>
        <mxCell id="FpaZY4VgzPgLUHwjwygb-41" value="&lt;pre style=&quot;box-sizing: border-box; font-family: SFMono-Regular, Menlo, Monaco, Consolas, &amp;quot;Liberation Mono&amp;quot;, &amp;quot;Courier New&amp;quot;, Courier, monospace; line-height: 1.4; margin-top: 0px; margin-bottom: 0px; padding: 12px; overflow: auto; color: rgb(64, 64, 64); text-align: start; font-size: 7px;&quot;&gt;&lt;span class=&quot;n&quot; style=&quot;box-sizing: border-box; font-size: 7px;&quot;&gt;ncclCommInitRank&lt;/span&gt;&lt;/pre&gt;" style="rounded=0;whiteSpace=wrap;html=1;fontSize=7;" parent="1" vertex="1">
          <mxGeometry x="1880" y="2170" width="80" height="30" as="geometry" />
        </mxCell>
        <mxCell id="FpaZY4VgzPgLUHwjwygb-45" value="" style="ellipse;whiteSpace=wrap;html=1;" parent="1" vertex="1">
          <mxGeometry x="2069.5" y="3182.5" width="310" height="210" as="geometry" />
        </mxCell>
        <mxCell id="FpaZY4VgzPgLUHwjwygb-48" value="ncclcomm" style="ellipse;whiteSpace=wrap;html=1;" parent="1" vertex="1">
          <mxGeometry x="2092" y="3267.5" width="95" height="40" as="geometry" />
        </mxCell>
        <mxCell id="FpaZY4VgzPgLUHwjwygb-50" value="vllm engine" style="shape=process;whiteSpace=wrap;html=1;backgroundOutline=1;" parent="1" vertex="1">
          <mxGeometry x="2232" y="3272.5" width="110" height="30" as="geometry" />
        </mxCell>
        <mxCell id="FpaZY4VgzPgLUHwjwygb-51" value="" style="ellipse;whiteSpace=wrap;html=1;" parent="1" vertex="1">
          <mxGeometry x="2069.5" y="2927.5" width="310" height="210" as="geometry" />
        </mxCell>
        <mxCell id="FpaZY4VgzPgLUHwjwygb-52" value="ncclcomm" style="ellipse;whiteSpace=wrap;html=1;" parent="1" vertex="1">
          <mxGeometry x="2092" y="3007.5" width="95" height="40" as="geometry" />
        </mxCell>
        <mxCell id="FpaZY4VgzPgLUHwjwygb-53" value="vllm engine" style="shape=process;whiteSpace=wrap;html=1;backgroundOutline=1;" parent="1" vertex="1">
          <mxGeometry x="2232" y="3012.5" width="110" height="30" as="geometry" />
        </mxCell>
        <mxCell id="FpaZY4VgzPgLUHwjwygb-54" value="controler" style="ellipse;whiteSpace=wrap;html=1;" parent="1" vertex="1">
          <mxGeometry x="1860" y="3117.5" width="120" height="80" as="geometry" />
        </mxCell>
        <mxCell id="FpaZY4VgzPgLUHwjwygb-57" value="" style="endArrow=classic;startArrow=classic;html=1;rounded=0;exitX=1;exitY=0;exitDx=0;exitDy=0;entryX=0;entryY=0.5;entryDx=0;entryDy=0;" parent="1" source="FpaZY4VgzPgLUHwjwygb-54" target="FpaZY4VgzPgLUHwjwygb-52" edge="1">
          <mxGeometry width="50" height="50" relative="1" as="geometry">
            <mxPoint x="1942" y="3097.5" as="sourcePoint" />
            <mxPoint x="1992" y="3047.5" as="targetPoint" />
          </mxGeometry>
        </mxCell>
        <mxCell id="FpaZY4VgzPgLUHwjwygb-60" value="uniqueID/heartbeat" style="edgeLabel;html=1;align=center;verticalAlign=middle;resizable=0;points=[];" parent="FpaZY4VgzPgLUHwjwygb-57" vertex="1" connectable="0">
          <mxGeometry x="-0.0007" relative="1" as="geometry">
            <mxPoint as="offset" />
          </mxGeometry>
        </mxCell>
        <mxCell id="FpaZY4VgzPgLUHwjwygb-58" value="" style="endArrow=classic;startArrow=classic;html=1;rounded=0;entryX=1;entryY=1;entryDx=0;entryDy=0;exitX=0;exitY=0.5;exitDx=0;exitDy=0;" parent="1" source="FpaZY4VgzPgLUHwjwygb-48" target="FpaZY4VgzPgLUHwjwygb-54" edge="1">
          <mxGeometry width="50" height="50" relative="1" as="geometry">
            <mxPoint x="1818.4756061888993" y="3098.595758932796" as="sourcePoint" />
            <mxPoint x="1992" y="2977.5" as="targetPoint" />
          </mxGeometry>
        </mxCell>
        <mxCell id="FpaZY4VgzPgLUHwjwygb-59" value="uniqueID/heartbeat" style="edgeLabel;html=1;align=center;verticalAlign=middle;resizable=0;points=[];" parent="FpaZY4VgzPgLUHwjwygb-58" vertex="1" connectable="0">
          <mxGeometry x="-0.0053" relative="1" as="geometry">
            <mxPoint as="offset" />
          </mxGeometry>
        </mxCell>
        <mxCell id="FpaZY4VgzPgLUHwjwygb-61" value="fault tolerance:&amp;nbsp;&lt;span lang=&quot;en&quot; class=&quot;HwtZe&quot;&gt;discard the offline rank&lt;/span&gt;&lt;div&gt;&lt;span style=&quot;background-color: initial;&quot;&gt;scalability: add new instance&amp;nbsp;&lt;/span&gt;&lt;/div&gt;" style="shape=callout;whiteSpace=wrap;html=1;perimeter=calloutPerimeter;position2=1;size=30;position=0.74;base=30;" parent="1" vertex="1">
          <mxGeometry x="1630" y="3067.5" width="230" height="90" as="geometry" />
        </mxCell>
        <mxCell id="zSxmJaPD-63I0w1NW2Ny-12" value="one iteration" style="rounded=0;whiteSpace=wrap;html=1;" vertex="1" parent="1">
          <mxGeometry x="895.95" y="440" width="90" height="30" as="geometry" />
        </mxCell>
        <mxCell id="zSxmJaPD-63I0w1NW2Ny-13" value="request finished" style="rounded=0;whiteSpace=wrap;html=1;" vertex="1" parent="1">
          <mxGeometry x="888.9200000000001" y="520" width="104.05" height="30" as="geometry" />
        </mxCell>
        <mxCell id="zSxmJaPD-63I0w1NW2Ny-31" style="edgeStyle=orthogonalEdgeStyle;rounded=0;orthogonalLoop=1;jettySize=auto;html=1;exitX=0.5;exitY=0;exitDx=0;exitDy=0;" edge="1" parent="1" source="zSxmJaPD-63I0w1NW2Ny-12" target="zSxmJaPD-63I0w1NW2Ny-12">
          <mxGeometry relative="1" as="geometry">
            <Array as="points">
              <mxPoint x="941" y="420" />
              <mxPoint x="870" y="420" />
              <mxPoint x="870" y="490" />
              <mxPoint x="941" y="490" />
            </Array>
          </mxGeometry>
        </mxCell>
        <mxCell id="zSxmJaPD-63I0w1NW2Ny-32" value="&lt;div&gt;kvcache&lt;/div&gt;cpu memory blocks" style="rounded=1;whiteSpace=wrap;html=1;" vertex="1" parent="1">
          <mxGeometry x="940.61" y="585" width="90" height="55" as="geometry" />
        </mxCell>
        <mxCell id="zSxmJaPD-63I0w1NW2Ny-33" value="" style="ellipse;whiteSpace=wrap;html=1;" vertex="1" parent="1">
          <mxGeometry x="1140" y="335" width="298.09" height="340" as="geometry" />
        </mxCell>
        <mxCell id="zSxmJaPD-63I0w1NW2Ny-34" value="vllm engine" style="rounded=1;whiteSpace=wrap;html=1;" vertex="1" parent="1">
          <mxGeometry x="1244.0500000000002" y="355" width="90" height="40" as="geometry" />
        </mxCell>
        <mxCell id="zSxmJaPD-63I0w1NW2Ny-35" value="&lt;div&gt;kvcache&lt;/div&gt;gpu memory blocks" style="rounded=1;whiteSpace=wrap;html=1;" vertex="1" parent="1">
          <mxGeometry x="1198.1" y="580" width="90" height="55" as="geometry" />
        </mxCell>
        <mxCell id="zSxmJaPD-63I0w1NW2Ny-36" value="one iteration" style="rounded=0;whiteSpace=wrap;html=1;" vertex="1" parent="1">
          <mxGeometry x="1244.0500000000002" y="435" width="90" height="30" as="geometry" />
        </mxCell>
        <mxCell id="zSxmJaPD-63I0w1NW2Ny-37" value="request finished" style="rounded=0;whiteSpace=wrap;html=1;" vertex="1" parent="1">
          <mxGeometry x="1237.02" y="515" width="104.05" height="30" as="geometry" />
        </mxCell>
        <mxCell id="zSxmJaPD-63I0w1NW2Ny-38" style="edgeStyle=orthogonalEdgeStyle;rounded=0;orthogonalLoop=1;jettySize=auto;html=1;exitX=0.5;exitY=0;exitDx=0;exitDy=0;" edge="1" parent="1" source="zSxmJaPD-63I0w1NW2Ny-36" target="zSxmJaPD-63I0w1NW2Ny-36">
          <mxGeometry relative="1" as="geometry">
            <Array as="points">
              <mxPoint x="1289.1" y="415" />
              <mxPoint x="1218.1" y="415" />
              <mxPoint x="1218.1" y="485" />
              <mxPoint x="1289.1" y="485" />
            </Array>
          </mxGeometry>
        </mxCell>
        <mxCell id="zSxmJaPD-63I0w1NW2Ny-39" value="&lt;div&gt;kvcache&lt;/div&gt;cpu memory blocks" style="rounded=1;whiteSpace=wrap;html=1;" vertex="1" parent="1">
          <mxGeometry x="1288.71" y="580" width="90" height="55" as="geometry" />
        </mxCell>
        <mxCell id="zSxmJaPD-63I0w1NW2Ny-40" value="" style="endArrow=classic;html=1;rounded=0;exitX=1;exitY=0.5;exitDx=0;exitDy=0;entryX=0;entryY=0.5;entryDx=0;entryDy=0;" edge="1" parent="1" source="zSxmJaPD-63I0w1NW2Ny-12" target="zSxmJaPD-63I0w1NW2Ny-35">
          <mxGeometry width="50" height="50" relative="1" as="geometry">
            <mxPoint x="1170" y="550" as="sourcePoint" />
            <mxPoint x="1220" y="500" as="targetPoint" />
          </mxGeometry>
        </mxCell>
        <mxCell id="zSxmJaPD-63I0w1NW2Ny-41" value="" style="endArrow=classic;html=1;rounded=0;exitX=1;exitY=0.5;exitDx=0;exitDy=0;entryX=0;entryY=0.5;entryDx=0;entryDy=0;" edge="1" parent="1" source="zSxmJaPD-63I0w1NW2Ny-13" target="zSxmJaPD-63I0w1NW2Ny-35">
          <mxGeometry width="50" height="50" relative="1" as="geometry">
            <mxPoint x="1170" y="550" as="sourcePoint" />
            <mxPoint x="1220" y="500" as="targetPoint" />
          </mxGeometry>
        </mxCell>
      </root>
    </mxGraphModel>
  </diagram>
  <diagram id="txT5Fs8ndfn1EjVVm0DQ" name="lmcache / v0.4.1 of vllm">
    <mxGraphModel dx="1816" dy="1750" grid="1" gridSize="10" guides="1" tooltips="1" connect="1" arrows="1" fold="1" page="1" pageScale="1" pageWidth="827" pageHeight="1169" math="0" shadow="0">
      <root>
        <mxCell id="0" />
        <mxCell id="1" parent="0" />
        <mxCell id="hneecikvyTRkOwy7JD_N-11" value="" style="ellipse;whiteSpace=wrap;html=1;" vertex="1" parent="1">
          <mxGeometry x="985.5" y="70" width="310" height="460" as="geometry" />
        </mxCell>
        <mxCell id="LR91-FgTyarU7_1ZSw-p-4" style="edgeStyle=orthogonalEdgeStyle;rounded=0;orthogonalLoop=1;jettySize=auto;html=1;exitX=1;exitY=0.5;exitDx=0;exitDy=0;entryX=0;entryY=0.5;entryDx=0;entryDy=0;" parent="1" source="LR91-FgTyarU7_1ZSw-p-1" target="LR91-FgTyarU7_1ZSw-p-2" edge="1">
          <mxGeometry relative="1" as="geometry" />
        </mxCell>
        <mxCell id="LR91-FgTyarU7_1ZSw-p-5" style="edgeStyle=orthogonalEdgeStyle;rounded=0;orthogonalLoop=1;jettySize=auto;html=1;exitX=1;exitY=0.5;exitDx=0;exitDy=0;entryX=0;entryY=0.5;entryDx=0;entryDy=0;" parent="1" source="LR91-FgTyarU7_1ZSw-p-1" target="LR91-FgTyarU7_1ZSw-p-3" edge="1">
          <mxGeometry relative="1" as="geometry" />
        </mxCell>
        <mxCell id="LR91-FgTyarU7_1ZSw-p-1" value="model_runner&lt;div&gt;(ModelRunner)&lt;/div&gt;" style="rounded=0;whiteSpace=wrap;html=1;" parent="1" vertex="1">
          <mxGeometry x="-439.5" y="180" width="120" height="60" as="geometry" />
        </mxCell>
        <mxCell id="LR91-FgTyarU7_1ZSw-p-2" value="cache_engine&lt;div&gt;(LMCacheEngine)&lt;/div&gt;" style="rounded=0;whiteSpace=wrap;html=1;" parent="1" vertex="1">
          <mxGeometry x="175.5" y="180" width="150" height="60" as="geometry" />
        </mxCell>
        <mxCell id="LR91-FgTyarU7_1ZSw-p-7" style="edgeStyle=orthogonalEdgeStyle;rounded=0;orthogonalLoop=1;jettySize=auto;html=1;exitX=1;exitY=0.5;exitDx=0;exitDy=0;entryX=0;entryY=0.5;entryDx=0;entryDy=0;" parent="1" source="LR91-FgTyarU7_1ZSw-p-3" target="LR91-FgTyarU7_1ZSw-p-2" edge="1">
          <mxGeometry relative="1" as="geometry" />
        </mxCell>
        <mxCell id="LR91-FgTyarU7_1ZSw-p-3" value="lmcache_driver&lt;div&gt;(LMCVLLMDriver)&lt;/div&gt;" style="rounded=0;whiteSpace=wrap;html=1;" parent="1" vertex="1">
          <mxGeometry x="-120" y="270" width="120" height="60" as="geometry" />
        </mxCell>
        <mxCell id="LR91-FgTyarU7_1ZSw-p-8" value="&lt;div&gt;&lt;b&gt;LMCVLLMDriver&lt;/b&gt;&lt;/div&gt;" style="swimlane;fontStyle=1;align=center;verticalAlign=top;childLayout=stackLayout;horizontal=1;startSize=26;horizontalStack=0;resizeParent=1;resizeParentMax=0;resizeLast=0;collapsible=1;marginBottom=0;whiteSpace=wrap;html=1;" parent="1" vertex="1">
          <mxGeometry x="-170.5" y="380" width="221" height="216" as="geometry">
            <mxRectangle x="940" y="1000" width="130" height="30" as="alternateBounds" />
          </mxGeometry>
        </mxCell>
        <mxCell id="LR91-FgTyarU7_1ZSw-p-9" value="cache_engine" style="text;strokeColor=none;fillColor=none;align=left;verticalAlign=top;spacingLeft=4;spacingRight=4;overflow=hidden;rotatable=0;points=[[0,0.5],[1,0.5]];portConstraint=eastwest;whiteSpace=wrap;html=1;" parent="LR91-FgTyarU7_1ZSw-p-8" vertex="1">
          <mxGeometry y="26" width="221" height="26" as="geometry" />
        </mxCell>
        <mxCell id="LR91-FgTyarU7_1ZSw-p-10" value="model_config" style="text;strokeColor=none;fillColor=none;align=left;verticalAlign=top;spacingLeft=4;spacingRight=4;overflow=hidden;rotatable=0;points=[[0,0.5],[1,0.5]];portConstraint=eastwest;whiteSpace=wrap;html=1;" parent="LR91-FgTyarU7_1ZSw-p-8" vertex="1">
          <mxGeometry y="52" width="221" height="26" as="geometry" />
        </mxCell>
        <mxCell id="LR91-FgTyarU7_1ZSw-p-11" value="parallel_config" style="text;strokeColor=none;fillColor=none;align=left;verticalAlign=top;spacingLeft=4;spacingRight=4;overflow=hidden;rotatable=0;points=[[0,0.5],[1,0.5]];portConstraint=eastwest;whiteSpace=wrap;html=1;" parent="LR91-FgTyarU7_1ZSw-p-8" vertex="1">
          <mxGeometry y="78" width="221" height="26" as="geometry" />
        </mxCell>
        <mxCell id="LR91-FgTyarU7_1ZSw-p-12" value="device" style="text;strokeColor=none;fillColor=none;align=left;verticalAlign=top;spacingLeft=4;spacingRight=4;overflow=hidden;rotatable=0;points=[[0,0.5],[1,0.5]];portConstraint=eastwest;whiteSpace=wrap;html=1;" parent="LR91-FgTyarU7_1ZSw-p-8" vertex="1">
          <mxGeometry y="104" width="221" height="26" as="geometry" />
        </mxCell>
        <mxCell id="LR91-FgTyarU7_1ZSw-p-13" value="block_size" style="text;strokeColor=none;fillColor=none;align=left;verticalAlign=top;spacingLeft=4;spacingRight=4;overflow=hidden;rotatable=0;points=[[0,0.5],[1,0.5]];portConstraint=eastwest;whiteSpace=wrap;html=1;" parent="LR91-FgTyarU7_1ZSw-p-8" vertex="1">
          <mxGeometry y="130" width="221" height="26" as="geometry" />
        </mxCell>
        <mxCell id="LR91-FgTyarU7_1ZSw-p-15" value="" style="line;strokeWidth=1;fillColor=none;align=left;verticalAlign=middle;spacingTop=-1;spacingLeft=3;spacingRight=3;rotatable=0;labelPosition=right;points=[];portConstraint=eastwest;strokeColor=inherit;" parent="LR91-FgTyarU7_1ZSw-p-8" vertex="1">
          <mxGeometry y="156" width="221" height="8" as="geometry" />
        </mxCell>
        <mxCell id="LR91-FgTyarU7_1ZSw-p-30" value="retrive()" style="text;strokeColor=none;fillColor=none;align=left;verticalAlign=top;spacingLeft=4;spacingRight=4;overflow=hidden;rotatable=0;points=[[0,0.5],[1,0.5]];portConstraint=eastwest;whiteSpace=wrap;html=1;" parent="LR91-FgTyarU7_1ZSw-p-8" vertex="1">
          <mxGeometry y="164" width="221" height="26" as="geometry" />
        </mxCell>
        <mxCell id="LR91-FgTyarU7_1ZSw-p-16" value="_inject_kv_cache()" style="text;strokeColor=none;fillColor=none;align=left;verticalAlign=top;spacingLeft=4;spacingRight=4;overflow=hidden;rotatable=0;points=[[0,0.5],[1,0.5]];portConstraint=eastwest;whiteSpace=wrap;html=1;" parent="LR91-FgTyarU7_1ZSw-p-8" vertex="1">
          <mxGeometry y="190" width="221" height="26" as="geometry" />
        </mxCell>
        <mxCell id="hneecikvyTRkOwy7JD_N-4" style="edgeStyle=orthogonalEdgeStyle;rounded=0;orthogonalLoop=1;jettySize=auto;html=1;exitX=0.5;exitY=1;exitDx=0;exitDy=0;entryX=0.5;entryY=0;entryDx=0;entryDy=0;" edge="1" parent="1" source="LR91-FgTyarU7_1ZSw-p-17" target="hneecikvyTRkOwy7JD_N-3">
          <mxGeometry relative="1" as="geometry" />
        </mxCell>
        <mxCell id="LR91-FgTyarU7_1ZSw-p-17" value="model_runner" style="rounded=0;whiteSpace=wrap;html=1;" parent="1" vertex="1">
          <mxGeometry x="1440" y="130" width="120" height="60" as="geometry" />
        </mxCell>
        <mxCell id="LR91-FgTyarU7_1ZSw-p-18" value="&lt;div&gt;&lt;b&gt;ModelRunner&lt;/b&gt;&lt;/div&gt;" style="swimlane;fontStyle=1;align=center;verticalAlign=top;childLayout=stackLayout;horizontal=1;startSize=26;horizontalStack=0;resizeParent=1;resizeParentMax=0;resizeLast=0;collapsible=1;marginBottom=0;whiteSpace=wrap;html=1;" parent="1" vertex="1">
          <mxGeometry x="-490" y="370" width="221" height="268" as="geometry">
            <mxRectangle x="940" y="1000" width="130" height="30" as="alternateBounds" />
          </mxGeometry>
        </mxCell>
        <mxCell id="LR91-FgTyarU7_1ZSw-p-20" value="model_config" style="text;strokeColor=none;fillColor=none;align=left;verticalAlign=top;spacingLeft=4;spacingRight=4;overflow=hidden;rotatable=0;points=[[0,0.5],[1,0.5]];portConstraint=eastwest;whiteSpace=wrap;html=1;" parent="LR91-FgTyarU7_1ZSw-p-18" vertex="1">
          <mxGeometry y="26" width="221" height="26" as="geometry" />
        </mxCell>
        <mxCell id="LR91-FgTyarU7_1ZSw-p-21" value="parallel_config" style="text;strokeColor=none;fillColor=none;align=left;verticalAlign=top;spacingLeft=4;spacingRight=4;overflow=hidden;rotatable=0;points=[[0,0.5],[1,0.5]];portConstraint=eastwest;whiteSpace=wrap;html=1;" parent="LR91-FgTyarU7_1ZSw-p-18" vertex="1">
          <mxGeometry y="52" width="221" height="26" as="geometry" />
        </mxCell>
        <mxCell id="LR91-FgTyarU7_1ZSw-p-19" value="scheduler_config" style="text;strokeColor=none;fillColor=none;align=left;verticalAlign=top;spacingLeft=4;spacingRight=4;overflow=hidden;rotatable=0;points=[[0,0.5],[1,0.5]];portConstraint=eastwest;whiteSpace=wrap;html=1;" parent="LR91-FgTyarU7_1ZSw-p-18" vertex="1">
          <mxGeometry y="78" width="221" height="26" as="geometry" />
        </mxCell>
        <mxCell id="LR91-FgTyarU7_1ZSw-p-22" value="load_config" style="text;strokeColor=none;fillColor=none;align=left;verticalAlign=top;spacingLeft=4;spacingRight=4;overflow=hidden;rotatable=0;points=[[0,0.5],[1,0.5]];portConstraint=eastwest;whiteSpace=wrap;html=1;" parent="LR91-FgTyarU7_1ZSw-p-18" vertex="1">
          <mxGeometry y="104" width="221" height="26" as="geometry" />
        </mxCell>
        <mxCell id="LR91-FgTyarU7_1ZSw-p-23" value="lora_config" style="text;strokeColor=none;fillColor=none;align=left;verticalAlign=top;spacingLeft=4;spacingRight=4;overflow=hidden;rotatable=0;points=[[0,0.5],[1,0.5]];portConstraint=eastwest;whiteSpace=wrap;html=1;" parent="LR91-FgTyarU7_1ZSw-p-18" vertex="1">
          <mxGeometry y="130" width="221" height="26" as="geometry" />
        </mxCell>
        <mxCell id="LR91-FgTyarU7_1ZSw-p-26" value="is_driver_worker" style="text;strokeColor=none;fillColor=none;align=left;verticalAlign=top;spacingLeft=4;spacingRight=4;overflow=hidden;rotatable=0;points=[[0,0.5],[1,0.5]];portConstraint=eastwest;whiteSpace=wrap;html=1;" parent="LR91-FgTyarU7_1ZSw-p-18" vertex="1">
          <mxGeometry y="156" width="221" height="26" as="geometry" />
        </mxCell>
        <mxCell id="LR91-FgTyarU7_1ZSw-p-27" value="lmcache_driver" style="text;strokeColor=none;fillColor=none;align=left;verticalAlign=top;spacingLeft=4;spacingRight=4;overflow=hidden;rotatable=0;points=[[0,0.5],[1,0.5]];portConstraint=eastwest;whiteSpace=wrap;html=1;" parent="LR91-FgTyarU7_1ZSw-p-18" vertex="1">
          <mxGeometry y="182" width="221" height="26" as="geometry" />
        </mxCell>
        <mxCell id="LR91-FgTyarU7_1ZSw-p-28" value="cache_engine" style="text;strokeColor=none;fillColor=none;align=left;verticalAlign=top;spacingLeft=4;spacingRight=4;overflow=hidden;rotatable=0;points=[[0,0.5],[1,0.5]];portConstraint=eastwest;whiteSpace=wrap;html=1;" parent="LR91-FgTyarU7_1ZSw-p-18" vertex="1">
          <mxGeometry y="208" width="221" height="26" as="geometry" />
        </mxCell>
        <mxCell id="LR91-FgTyarU7_1ZSw-p-24" value="" style="line;strokeWidth=1;fillColor=none;align=left;verticalAlign=middle;spacingTop=-1;spacingLeft=3;spacingRight=3;rotatable=0;labelPosition=right;points=[];portConstraint=eastwest;strokeColor=inherit;" parent="LR91-FgTyarU7_1ZSw-p-18" vertex="1">
          <mxGeometry y="234" width="221" height="8" as="geometry" />
        </mxCell>
        <mxCell id="LR91-FgTyarU7_1ZSw-p-25" value="_prepare_prompt()" style="text;strokeColor=none;fillColor=none;align=left;verticalAlign=top;spacingLeft=4;spacingRight=4;overflow=hidden;rotatable=0;points=[[0,0.5],[1,0.5]];portConstraint=eastwest;whiteSpace=wrap;html=1;" parent="LR91-FgTyarU7_1ZSw-p-18" vertex="1">
          <mxGeometry y="242" width="221" height="26" as="geometry" />
        </mxCell>
        <mxCell id="LR91-FgTyarU7_1ZSw-p-29" value="" style="endArrow=classic;html=1;rounded=0;exitX=1;exitY=0.5;exitDx=0;exitDy=0;entryX=-0.005;entryY=0.065;entryDx=0;entryDy=0;entryPerimeter=0;" parent="1" source="LR91-FgTyarU7_1ZSw-p-27" target="LR91-FgTyarU7_1ZSw-p-8" edge="1">
          <mxGeometry width="50" height="50" relative="1" as="geometry">
            <mxPoint x="-210" y="460" as="sourcePoint" />
            <mxPoint x="-160" y="410" as="targetPoint" />
          </mxGeometry>
        </mxCell>
        <mxCell id="LR91-FgTyarU7_1ZSw-p-31" value="&lt;div&gt;&lt;b&gt;LMCacheEngine&lt;/b&gt;&lt;/div&gt;" style="swimlane;fontStyle=1;align=center;verticalAlign=top;childLayout=stackLayout;horizontal=1;startSize=26;horizontalStack=0;resizeParent=1;resizeParentMax=0;resizeLast=0;collapsible=1;marginBottom=0;whiteSpace=wrap;html=1;" parent="1" vertex="1">
          <mxGeometry x="140" y="380" width="221" height="190" as="geometry">
            <mxRectangle x="940" y="1000" width="130" height="30" as="alternateBounds" />
          </mxGeometry>
        </mxCell>
        <mxCell id="LR91-FgTyarU7_1ZSw-p-32" value="config" style="text;strokeColor=none;fillColor=none;align=left;verticalAlign=top;spacingLeft=4;spacingRight=4;overflow=hidden;rotatable=0;points=[[0,0.5],[1,0.5]];portConstraint=eastwest;whiteSpace=wrap;html=1;" parent="LR91-FgTyarU7_1ZSw-p-31" vertex="1">
          <mxGeometry y="26" width="221" height="26" as="geometry" />
        </mxCell>
        <mxCell id="LR91-FgTyarU7_1ZSw-p-33" value="metadata" style="text;strokeColor=none;fillColor=none;align=left;verticalAlign=top;spacingLeft=4;spacingRight=4;overflow=hidden;rotatable=0;points=[[0,0.5],[1,0.5]];portConstraint=eastwest;whiteSpace=wrap;html=1;" parent="LR91-FgTyarU7_1ZSw-p-31" vertex="1">
          <mxGeometry y="52" width="221" height="26" as="geometry" />
        </mxCell>
        <mxCell id="LR91-FgTyarU7_1ZSw-p-34" value="chunk_size" style="text;strokeColor=none;fillColor=none;align=left;verticalAlign=top;spacingLeft=4;spacingRight=4;overflow=hidden;rotatable=0;points=[[0,0.5],[1,0.5]];portConstraint=eastwest;whiteSpace=wrap;html=1;" parent="LR91-FgTyarU7_1ZSw-p-31" vertex="1">
          <mxGeometry y="78" width="221" height="26" as="geometry" />
        </mxCell>
        <mxCell id="LR91-FgTyarU7_1ZSw-p-35" value="engine" style="text;strokeColor=none;fillColor=none;align=left;verticalAlign=top;spacingLeft=4;spacingRight=4;overflow=hidden;rotatable=0;points=[[0,0.5],[1,0.5]];portConstraint=eastwest;whiteSpace=wrap;html=1;" parent="LR91-FgTyarU7_1ZSw-p-31" vertex="1">
          <mxGeometry y="104" width="221" height="26" as="geometry" />
        </mxCell>
        <mxCell id="LR91-FgTyarU7_1ZSw-p-37" value="" style="line;strokeWidth=1;fillColor=none;align=left;verticalAlign=middle;spacingTop=-1;spacingLeft=3;spacingRight=3;rotatable=0;labelPosition=right;points=[];portConstraint=eastwest;strokeColor=inherit;" parent="LR91-FgTyarU7_1ZSw-p-31" vertex="1">
          <mxGeometry y="130" width="221" height="8" as="geometry" />
        </mxCell>
        <mxCell id="LR91-FgTyarU7_1ZSw-p-38" value="retrive()" style="text;strokeColor=none;fillColor=none;align=left;verticalAlign=top;spacingLeft=4;spacingRight=4;overflow=hidden;rotatable=0;points=[[0,0.5],[1,0.5]];portConstraint=eastwest;whiteSpace=wrap;html=1;" parent="LR91-FgTyarU7_1ZSw-p-31" vertex="1">
          <mxGeometry y="138" width="221" height="26" as="geometry" />
        </mxCell>
        <mxCell id="LR91-FgTyarU7_1ZSw-p-39" value="_inject_kv_cache()" style="text;strokeColor=none;fillColor=none;align=left;verticalAlign=top;spacingLeft=4;spacingRight=4;overflow=hidden;rotatable=0;points=[[0,0.5],[1,0.5]];portConstraint=eastwest;whiteSpace=wrap;html=1;" parent="LR91-FgTyarU7_1ZSw-p-31" vertex="1">
          <mxGeometry y="164" width="221" height="26" as="geometry" />
        </mxCell>
        <mxCell id="LR91-FgTyarU7_1ZSw-p-40" value="&lt;div&gt;&lt;b&gt;LMCLocalBackend&lt;/b&gt;&lt;/div&gt;" style="swimlane;fontStyle=1;align=center;verticalAlign=top;childLayout=stackLayout;horizontal=1;startSize=26;horizontalStack=0;resizeParent=1;resizeParentMax=0;resizeLast=0;collapsible=1;marginBottom=0;whiteSpace=wrap;html=1;" parent="1" vertex="1">
          <mxGeometry x="1030" y="250" width="221" height="190" as="geometry">
            <mxRectangle x="940" y="1000" width="130" height="30" as="alternateBounds" />
          </mxGeometry>
        </mxCell>
        <mxCell id="LR91-FgTyarU7_1ZSw-p-43" value="chunk_size" style="text;strokeColor=none;fillColor=none;align=left;verticalAlign=top;spacingLeft=4;spacingRight=4;overflow=hidden;rotatable=0;points=[[0,0.5],[1,0.5]];portConstraint=eastwest;whiteSpace=wrap;html=1;" parent="LR91-FgTyarU7_1ZSw-p-40" vertex="1">
          <mxGeometry y="26" width="221" height="26" as="geometry" />
        </mxCell>
        <mxCell id="LR91-FgTyarU7_1ZSw-p-41" value="config" style="text;strokeColor=none;fillColor=none;align=left;verticalAlign=top;spacingLeft=4;spacingRight=4;overflow=hidden;rotatable=0;points=[[0,0.5],[1,0.5]];portConstraint=eastwest;whiteSpace=wrap;html=1;" parent="LR91-FgTyarU7_1ZSw-p-40" vertex="1">
          <mxGeometry y="52" width="221" height="26" as="geometry" />
        </mxCell>
        <mxCell id="LR91-FgTyarU7_1ZSw-p-44" value="device" style="text;strokeColor=none;fillColor=none;align=left;verticalAlign=top;spacingLeft=4;spacingRight=4;overflow=hidden;rotatable=0;points=[[0,0.5],[1,0.5]];portConstraint=eastwest;whiteSpace=wrap;html=1;" parent="LR91-FgTyarU7_1ZSw-p-40" vertex="1">
          <mxGeometry y="78" width="221" height="26" as="geometry" />
        </mxCell>
        <mxCell id="LR91-FgTyarU7_1ZSw-p-48" value="dict" style="text;strokeColor=none;fillColor=none;align=left;verticalAlign=top;spacingLeft=4;spacingRight=4;overflow=hidden;rotatable=0;points=[[0,0.5],[1,0.5]];portConstraint=eastwest;whiteSpace=wrap;html=1;" parent="LR91-FgTyarU7_1ZSw-p-40" vertex="1">
          <mxGeometry y="104" width="221" height="26" as="geometry" />
        </mxCell>
        <mxCell id="LR91-FgTyarU7_1ZSw-p-45" value="" style="line;strokeWidth=1;fillColor=none;align=left;verticalAlign=middle;spacingTop=-1;spacingLeft=3;spacingRight=3;rotatable=0;labelPosition=right;points=[];portConstraint=eastwest;strokeColor=inherit;" parent="LR91-FgTyarU7_1ZSw-p-40" vertex="1">
          <mxGeometry y="130" width="221" height="8" as="geometry" />
        </mxCell>
        <mxCell id="LR91-FgTyarU7_1ZSw-p-46" value="retrive()" style="text;strokeColor=none;fillColor=none;align=left;verticalAlign=top;spacingLeft=4;spacingRight=4;overflow=hidden;rotatable=0;points=[[0,0.5],[1,0.5]];portConstraint=eastwest;whiteSpace=wrap;html=1;" parent="LR91-FgTyarU7_1ZSw-p-40" vertex="1">
          <mxGeometry y="138" width="221" height="26" as="geometry" />
        </mxCell>
        <mxCell id="LR91-FgTyarU7_1ZSw-p-47" value="_inject_kv_cache()" style="text;strokeColor=none;fillColor=none;align=left;verticalAlign=top;spacingLeft=4;spacingRight=4;overflow=hidden;rotatable=0;points=[[0,0.5],[1,0.5]];portConstraint=eastwest;whiteSpace=wrap;html=1;" parent="LR91-FgTyarU7_1ZSw-p-40" vertex="1">
          <mxGeometry y="164" width="221" height="26" as="geometry" />
        </mxCell>
        <mxCell id="LR91-FgTyarU7_1ZSw-p-50" value="" style="endArrow=classic;html=1;rounded=0;exitX=1;exitY=0.5;exitDx=0;exitDy=0;entryX=-0.003;entryY=0.068;entryDx=0;entryDy=0;entryPerimeter=0;" parent="1" source="LR91-FgTyarU7_1ZSw-p-9" target="LR91-FgTyarU7_1ZSw-p-31" edge="1">
          <mxGeometry width="50" height="50" relative="1" as="geometry">
            <mxPoint x="180" y="510" as="sourcePoint" />
            <mxPoint x="230" y="460" as="targetPoint" />
          </mxGeometry>
        </mxCell>
        <mxCell id="LR91-FgTyarU7_1ZSw-p-51" value="kv shape:&lt;div&gt;[ num_layer, 2, num_tokens, num_kv_head, head_size ]&lt;/div&gt;" style="shape=note;whiteSpace=wrap;html=1;backgroundOutline=1;darkOpacity=0.05;" parent="1" vertex="1">
          <mxGeometry x="1010" y="-100" width="380" height="80" as="geometry" />
        </mxCell>
        <mxCell id="hneecikvyTRkOwy7JD_N-1" value="" style="endArrow=classic;html=1;rounded=0;exitX=0;exitY=0.5;exitDx=0;exitDy=0;entryX=1;entryY=0.5;entryDx=0;entryDy=0;" edge="1" parent="1" source="hneecikvyTRkOwy7JD_N-2" target="LR91-FgTyarU7_1ZSw-p-46">
          <mxGeometry width="50" height="50" relative="1" as="geometry">
            <mxPoint x="1360" y="310" as="sourcePoint" />
            <mxPoint x="1410" y="260" as="targetPoint" />
          </mxGeometry>
        </mxCell>
        <mxCell id="hneecikvyTRkOwy7JD_N-2" value="retirve" style="rounded=0;whiteSpace=wrap;html=1;" vertex="1" parent="1">
          <mxGeometry x="1320" y="310" width="120" height="60" as="geometry" />
        </mxCell>
        <mxCell id="hneecikvyTRkOwy7JD_N-3" value="_prepare_prompt" style="rounded=0;whiteSpace=wrap;html=1;" vertex="1" parent="1">
          <mxGeometry x="1440" y="220" width="120" height="60" as="geometry" />
        </mxCell>
        <mxCell id="hneecikvyTRkOwy7JD_N-5" value="" style="endArrow=classic;html=1;rounded=0;exitX=0.5;exitY=1;exitDx=0;exitDy=0;entryX=1;entryY=0.5;entryDx=0;entryDy=0;" edge="1" parent="1" source="hneecikvyTRkOwy7JD_N-3" target="hneecikvyTRkOwy7JD_N-2">
          <mxGeometry width="50" height="50" relative="1" as="geometry">
            <mxPoint x="1330" y="355" as="sourcePoint" />
            <mxPoint x="1251" y="411" as="targetPoint" />
          </mxGeometry>
        </mxCell>
        <mxCell id="hneecikvyTRkOwy7JD_N-6" value="kvcaches" style="rounded=0;whiteSpace=wrap;html=1;" vertex="1" parent="1">
          <mxGeometry x="1320" y="388" width="120" height="60" as="geometry" />
        </mxCell>
        <mxCell id="hneecikvyTRkOwy7JD_N-7" value="" style="endArrow=classic;html=1;rounded=0;exitX=1;exitY=0.5;exitDx=0;exitDy=0;entryX=0;entryY=0.5;entryDx=0;entryDy=0;" edge="1" parent="1" source="LR91-FgTyarU7_1ZSw-p-46" target="hneecikvyTRkOwy7JD_N-6">
          <mxGeometry width="50" height="50" relative="1" as="geometry">
            <mxPoint x="1570" y="290" as="sourcePoint" />
            <mxPoint x="1450" y="355" as="targetPoint" />
          </mxGeometry>
        </mxCell>
        <mxCell id="hneecikvyTRkOwy7JD_N-8" value="" style="endArrow=classic;html=1;rounded=0;exitX=0;exitY=0.5;exitDx=0;exitDy=0;entryX=1;entryY=0.5;entryDx=0;entryDy=0;" edge="1" parent="1" source="hneecikvyTRkOwy7JD_N-6" target="LR91-FgTyarU7_1ZSw-p-47">
          <mxGeometry width="50" height="50" relative="1" as="geometry">
            <mxPoint x="1580" y="300" as="sourcePoint" />
            <mxPoint x="1460" y="365" as="targetPoint" />
          </mxGeometry>
        </mxCell>
        <mxCell id="hneecikvyTRkOwy7JD_N-9" value="forward" style="rounded=0;whiteSpace=wrap;html=1;" vertex="1" parent="1">
          <mxGeometry x="1440" y="480" width="120" height="60" as="geometry" />
        </mxCell>
        <mxCell id="hneecikvyTRkOwy7JD_N-10" value="" style="endArrow=classic;html=1;rounded=0;exitX=1;exitY=0.5;exitDx=0;exitDy=0;entryX=0;entryY=0.5;entryDx=0;entryDy=0;" edge="1" parent="1" source="LR91-FgTyarU7_1ZSw-p-47" target="hneecikvyTRkOwy7JD_N-9">
          <mxGeometry width="50" height="50" relative="1" as="geometry">
            <mxPoint x="1400" y="400" as="sourcePoint" />
            <mxPoint x="1450" y="350" as="targetPoint" />
          </mxGeometry>
        </mxCell>
        <mxCell id="hneecikvyTRkOwy7JD_N-21" value="redis server" style="shape=process;whiteSpace=wrap;html=1;backgroundOutline=1;" vertex="1" parent="1">
          <mxGeometry x="1060.5" y="160" width="160" height="30" as="geometry" />
        </mxCell>
        <mxCell id="hneecikvyTRkOwy7JD_N-22" value="split_kv_caches&lt;div&gt;reshape_and_cache&lt;/div&gt;" style="rounded=0;whiteSpace=wrap;html=1;" vertex="1" parent="1">
          <mxGeometry x="840" y="397" width="120" height="60" as="geometry" />
        </mxCell>
        <mxCell id="hneecikvyTRkOwy7JD_N-23" value="" style="endArrow=classic;html=1;rounded=0;exitX=0;exitY=0.5;exitDx=0;exitDy=0;entryX=1;entryY=0.5;entryDx=0;entryDy=0;" edge="1" parent="1" source="LR91-FgTyarU7_1ZSw-p-47" target="hneecikvyTRkOwy7JD_N-22">
          <mxGeometry width="50" height="50" relative="1" as="geometry">
            <mxPoint x="1270" y="380" as="sourcePoint" />
            <mxPoint x="1320" y="330" as="targetPoint" />
          </mxGeometry>
        </mxCell>
      </root>
    </mxGraphModel>
  </diagram>
  <diagram id="j72orH3TQTyW0rn41BF7" name="第 3 页">
    <mxGraphModel dx="1510" dy="401" grid="1" gridSize="10" guides="1" tooltips="1" connect="1" arrows="1" fold="1" page="1" pageScale="1" pageWidth="827" pageHeight="1169" math="0" shadow="0">
      <root>
        <mxCell id="0" />
        <mxCell id="1" parent="0" />
        <mxCell id="ffoMUipfQtBfjTYaTAUI-1" value="controller" style="rounded=0;whiteSpace=wrap;html=1;" vertex="1" parent="1">
          <mxGeometry x="-60" y="210" width="100" height="240" as="geometry" />
        </mxCell>
        <mxCell id="ffoMUipfQtBfjTYaTAUI-2" value="rank0" style="rounded=0;whiteSpace=wrap;html=1;" vertex="1" parent="1">
          <mxGeometry x="280" y="210" width="120" height="60" as="geometry" />
        </mxCell>
        <mxCell id="ffoMUipfQtBfjTYaTAUI-3" value="rank1" style="rounded=0;whiteSpace=wrap;html=1;" vertex="1" parent="1">
          <mxGeometry x="280" y="300" width="120" height="60" as="geometry" />
        </mxCell>
        <mxCell id="ffoMUipfQtBfjTYaTAUI-4" value="rank2" style="rounded=0;whiteSpace=wrap;html=1;" vertex="1" parent="1">
          <mxGeometry x="280" y="390" width="120" height="60" as="geometry" />
        </mxCell>
        <mxCell id="ffoMUipfQtBfjTYaTAUI-5" value="" style="endArrow=classic;html=1;rounded=0;exitX=0;exitY=0.5;exitDx=0;exitDy=0;entryX=1;entryY=0.25;entryDx=0;entryDy=0;" edge="1" parent="1" source="ffoMUipfQtBfjTYaTAUI-2" target="ffoMUipfQtBfjTYaTAUI-1">
          <mxGeometry width="50" height="50" relative="1" as="geometry">
            <mxPoint x="300" y="350" as="sourcePoint" />
            <mxPoint x="350" y="300" as="targetPoint" />
          </mxGeometry>
        </mxCell>
        <mxCell id="ffoMUipfQtBfjTYaTAUI-8" value="heartbeat" style="edgeLabel;html=1;align=center;verticalAlign=middle;resizable=0;points=[];" vertex="1" connectable="0" parent="ffoMUipfQtBfjTYaTAUI-5">
          <mxGeometry x="0.0037" y="-1" relative="1" as="geometry">
            <mxPoint x="-60" y="6" as="offset" />
          </mxGeometry>
        </mxCell>
        <mxCell id="ffoMUipfQtBfjTYaTAUI-6" value="" style="endArrow=classic;html=1;rounded=0;exitX=0;exitY=0.5;exitDx=0;exitDy=0;entryX=1;entryY=0.25;entryDx=0;entryDy=0;" edge="1" parent="1" source="ffoMUipfQtBfjTYaTAUI-3" target="ffoMUipfQtBfjTYaTAUI-1">
          <mxGeometry width="50" height="50" relative="1" as="geometry">
            <mxPoint x="290" y="250" as="sourcePoint" />
            <mxPoint x="140" y="325" as="targetPoint" />
          </mxGeometry>
        </mxCell>
        <mxCell id="ffoMUipfQtBfjTYaTAUI-9" value="heartbeat" style="edgeLabel;html=1;align=center;verticalAlign=middle;resizable=0;points=[];" vertex="1" connectable="0" parent="ffoMUipfQtBfjTYaTAUI-6">
          <mxGeometry x="0.0094" y="-1" relative="1" as="geometry">
            <mxPoint x="-59" y="-19" as="offset" />
          </mxGeometry>
        </mxCell>
        <mxCell id="ffoMUipfQtBfjTYaTAUI-7" value="" style="endArrow=classic;html=1;rounded=0;exitX=0;exitY=0.5;exitDx=0;exitDy=0;entryX=1;entryY=0.25;entryDx=0;entryDy=0;" edge="1" parent="1" source="ffoMUipfQtBfjTYaTAUI-4" target="ffoMUipfQtBfjTYaTAUI-1">
          <mxGeometry width="50" height="50" relative="1" as="geometry">
            <mxPoint x="300" y="260" as="sourcePoint" />
            <mxPoint x="150" y="335" as="targetPoint" />
          </mxGeometry>
        </mxCell>
        <mxCell id="ffoMUipfQtBfjTYaTAUI-10" value="heartbeat" style="edgeLabel;html=1;align=center;verticalAlign=middle;resizable=0;points=[];" vertex="1" connectable="0" parent="ffoMUipfQtBfjTYaTAUI-7">
          <mxGeometry x="0.0146" relative="1" as="geometry">
            <mxPoint x="-58" y="-44" as="offset" />
          </mxGeometry>
        </mxCell>
        <mxCell id="ffoMUipfQtBfjTYaTAUI-12" value="" style="endArrow=classic;html=1;rounded=0;exitX=1;exitY=0.75;exitDx=0;exitDy=0;entryX=0;entryY=0.5;entryDx=0;entryDy=0;" edge="1" parent="1" source="ffoMUipfQtBfjTYaTAUI-1" target="ffoMUipfQtBfjTYaTAUI-3">
          <mxGeometry width="50" height="50" relative="1" as="geometry">
            <mxPoint x="160" y="380" as="sourcePoint" />
            <mxPoint x="210" y="330" as="targetPoint" />
          </mxGeometry>
        </mxCell>
        <mxCell id="ffoMUipfQtBfjTYaTAUI-13" value="" style="endArrow=classic;html=1;rounded=0;exitX=1;exitY=0.75;exitDx=0;exitDy=0;entryX=0;entryY=0.5;entryDx=0;entryDy=0;" edge="1" parent="1" source="ffoMUipfQtBfjTYaTAUI-1" target="ffoMUipfQtBfjTYaTAUI-4">
          <mxGeometry width="50" height="50" relative="1" as="geometry">
            <mxPoint x="320" y="280" as="sourcePoint" />
            <mxPoint x="170" y="355" as="targetPoint" />
          </mxGeometry>
        </mxCell>
        <mxCell id="ffoMUipfQtBfjTYaTAUI-14" value="" style="endArrow=classic;html=1;rounded=0;exitX=0;exitY=0.5;exitDx=0;exitDy=0;entryX=1;entryY=0.75;entryDx=0;entryDy=0;" edge="1" parent="1" source="ffoMUipfQtBfjTYaTAUI-2" target="ffoMUipfQtBfjTYaTAUI-1">
          <mxGeometry width="50" height="50" relative="1" as="geometry">
            <mxPoint x="330" y="290" as="sourcePoint" />
            <mxPoint x="180" y="365" as="targetPoint" />
          </mxGeometry>
        </mxCell>
        <mxCell id="ffoMUipfQtBfjTYaTAUI-15" value="unqueID" style="edgeLabel;html=1;align=center;verticalAlign=middle;resizable=0;points=[];" vertex="1" connectable="0" parent="ffoMUipfQtBfjTYaTAUI-14">
          <mxGeometry x="0.4345" y="-2" relative="1" as="geometry">
            <mxPoint x="-17" y="14" as="offset" />
          </mxGeometry>
        </mxCell>
        <mxCell id="ffoMUipfQtBfjTYaTAUI-16" value="unqueID" style="edgeLabel;html=1;align=center;verticalAlign=middle;resizable=0;points=[];" vertex="1" connectable="0" parent="1">
          <mxGeometry x="89.99594606776193" y="379.99778842463473" as="geometry" />
        </mxCell>
        <mxCell id="ffoMUipfQtBfjTYaTAUI-17" value="unqueID" style="edgeLabel;html=1;align=center;verticalAlign=middle;resizable=0;points=[];" vertex="1" connectable="0" parent="1">
          <mxGeometry x="89.99594606776193" y="399.99778842463473" as="geometry" />
        </mxCell>
      </root>
    </mxGraphModel>
  </diagram>
</mxfile>
